<mxfile host="app.diagrams.net" agent="Mozilla/5.0 (Windows NT 10.0; Win64; x64) AppleWebKit/537.36 (KHTML, like Gecko) Chrome/136.0.0.0 Safari/537.36" version="27.0.6">
  <diagram name="Страница — 1" id="yeYbxyZQXoJInK4IJkdv">
    <mxGraphModel dx="1678" dy="895" grid="1" gridSize="10" guides="1" tooltips="1" connect="1" arrows="1" fold="1" page="1" pageScale="1" pageWidth="1169" pageHeight="1654" background="light-dark(#FFFFFF,#FFFFFF)" math="0" shadow="0">
      <root>
        <mxCell id="0" />
        <mxCell id="1" parent="0" />
        <mxCell id="vH0KbwVFjzK0gVxRwM7X-11" style="edgeStyle=orthogonalEdgeStyle;rounded=0;orthogonalLoop=1;jettySize=auto;html=1;exitX=0.5;exitY=1;exitDx=0;exitDy=0;entryX=0.5;entryY=0;entryDx=0;entryDy=0;" edge="1" parent="1" source="vH0KbwVFjzK0gVxRwM7X-6" target="vH0KbwVFjzK0gVxRwM7X-7">
          <mxGeometry relative="1" as="geometry" />
        </mxCell>
        <mxCell id="vH0KbwVFjzK0gVxRwM7X-13" style="edgeStyle=orthogonalEdgeStyle;rounded=0;orthogonalLoop=1;jettySize=auto;html=1;exitX=0.5;exitY=1;exitDx=0;exitDy=0;entryX=0.5;entryY=0;entryDx=0;entryDy=0;strokeColor=light-dark(#000000,#000000);" edge="1" parent="1" source="vH0KbwVFjzK0gVxRwM7X-6" target="vH0KbwVFjzK0gVxRwM7X-7">
          <mxGeometry relative="1" as="geometry" />
        </mxCell>
        <mxCell id="vH0KbwVFjzK0gVxRwM7X-6" value="ГС" style="rounded=0;whiteSpace=wrap;html=1;" vertex="1" parent="1">
          <mxGeometry x="200" y="40" width="120" height="60" as="geometry" />
        </mxCell>
        <mxCell id="vH0KbwVFjzK0gVxRwM7X-7" value="SAH 408F" style="rounded=0;whiteSpace=wrap;html=1;" vertex="1" parent="1">
          <mxGeometry x="200" y="150" width="120" height="60" as="geometry" />
        </mxCell>
        <mxCell id="vH0KbwVFjzK0gVxRwM7X-14" value="&lt;span style=&quot;font-size:12.0pt;line-height:&lt;br/&gt;115%;font-family:&amp;quot;Times New Roman&amp;quot;,serif;mso-fareast-font-family:Calibri;&lt;br/&gt;mso-ansi-language:EN-US;mso-fareast-language:EN-US;mso-bidi-language:AR-SA&quot; lang=&quot;EN-US&quot;&gt;TAH&lt;/span&gt;&lt;span style=&quot;font-size:12.0pt;line-height:115%;font-family:&amp;quot;Times New Roman&amp;quot;,serif;&lt;br/&gt;mso-fareast-font-family:Calibri;mso-ansi-language:RU;mso-fareast-language:EN-US;&lt;br/&gt;mso-bidi-language:AR-SA&quot; lang=&quot;EN-US&quot;&gt; &lt;/span&gt;&lt;span style=&quot;font-size:12.0pt;line-height:&lt;br/&gt;115%;font-family:&amp;quot;Times New Roman&amp;quot;,serif;mso-fareast-font-family:Calibri;&lt;br/&gt;mso-ansi-language:RU;mso-fareast-language:EN-US;mso-bidi-language:AR-SA&quot;&gt;420F&lt;br&gt;&lt;/span&gt;" style="rounded=0;whiteSpace=wrap;html=1;" vertex="1" parent="1">
          <mxGeometry x="200" y="260" width="120" height="60" as="geometry" />
        </mxCell>
        <mxCell id="vH0KbwVFjzK0gVxRwM7X-21" value="" style="endArrow=classic;html=1;rounded=0;exitX=0;exitY=0.25;exitDx=0;exitDy=0;" edge="1" parent="1" source="vH0KbwVFjzK0gVxRwM7X-14">
          <mxGeometry width="50" height="50" relative="1" as="geometry">
            <mxPoint x="470" y="380" as="sourcePoint" />
            <mxPoint x="120" y="275" as="targetPoint" />
          </mxGeometry>
        </mxCell>
        <mxCell id="vH0KbwVFjzK0gVxRwM7X-22" value="" style="endArrow=classic;html=1;rounded=0;exitX=0;exitY=0.75;exitDx=0;exitDy=0;" edge="1" parent="1" source="vH0KbwVFjzK0gVxRwM7X-14">
          <mxGeometry width="50" height="50" relative="1" as="geometry">
            <mxPoint x="470" y="380" as="sourcePoint" />
            <mxPoint x="120" y="305" as="targetPoint" />
          </mxGeometry>
        </mxCell>
        <mxCell id="vH0KbwVFjzK0gVxRwM7X-75" value="94-120 Дб" style="text;html=1;align=center;verticalAlign=middle;resizable=0;points=[];autosize=1;strokeColor=none;fillColor=none;textShadow=0;fontStyle=0" vertex="1" parent="1">
          <mxGeometry x="260" y="110" width="80" height="30" as="geometry" />
        </mxCell>
        <mxCell id="vH0KbwVFjzK0gVxRwM7X-76" value="" style="endArrow=classic;html=1;rounded=0;exitX=0.5;exitY=1;exitDx=0;exitDy=0;entryX=0.5;entryY=0;entryDx=0;entryDy=0;" edge="1" parent="1" source="vH0KbwVFjzK0gVxRwM7X-14" target="vH0KbwVFjzK0gVxRwM7X-77">
          <mxGeometry width="50" height="50" relative="1" as="geometry">
            <mxPoint x="380" y="340" as="sourcePoint" />
            <mxPoint x="260" y="370" as="targetPoint" />
          </mxGeometry>
        </mxCell>
        <mxCell id="vH0KbwVFjzK0gVxRwM7X-77" value="&lt;span style=&quot;font-size:12.0pt;line-height:&lt;br/&gt;115%;font-family:&amp;quot;Times New Roman&amp;quot;,serif;mso-fareast-font-family:Calibri;&lt;br/&gt;mso-ansi-language:EN-US;mso-fareast-language:EN-US;mso-bidi-language:AR-SA&quot; lang=&quot;EN-US&quot;&gt;TAH&lt;/span&gt;&lt;span style=&quot;font-size:12.0pt;line-height:115%;font-family:&amp;quot;Times New Roman&amp;quot;,serif;&lt;br/&gt;mso-fareast-font-family:Calibri;mso-ansi-language:RU;mso-fareast-language:EN-US;&lt;br/&gt;mso-bidi-language:AR-SA&quot; lang=&quot;EN-US&quot;&gt; &lt;/span&gt;&lt;span style=&quot;font-size:12.0pt;line-height:&lt;br/&gt;115%;font-family:&amp;quot;Times New Roman&amp;quot;,serif;mso-fareast-font-family:Calibri;&lt;br/&gt;mso-ansi-language:RU;mso-fareast-language:EN-US;mso-bidi-language:AR-SA&quot;&gt;420F&lt;br&gt;&lt;/span&gt;" style="rounded=0;whiteSpace=wrap;html=1;" vertex="1" parent="1">
          <mxGeometry x="200" y="380" width="120" height="60" as="geometry" />
        </mxCell>
        <mxCell id="vH0KbwVFjzK0gVxRwM7X-79" value="" style="endArrow=classic;html=1;rounded=0;exitX=0;exitY=0.25;exitDx=0;exitDy=0;" edge="1" parent="1" source="vH0KbwVFjzK0gVxRwM7X-77">
          <mxGeometry width="50" height="50" relative="1" as="geometry">
            <mxPoint x="470" y="490" as="sourcePoint" />
            <mxPoint x="120" y="395" as="targetPoint" />
          </mxGeometry>
        </mxCell>
        <mxCell id="vH0KbwVFjzK0gVxRwM7X-80" value="" style="endArrow=classic;html=1;rounded=0;exitX=0;exitY=0.75;exitDx=0;exitDy=0;" edge="1" parent="1" source="vH0KbwVFjzK0gVxRwM7X-77">
          <mxGeometry width="50" height="50" relative="1" as="geometry">
            <mxPoint x="470" y="490" as="sourcePoint" />
            <mxPoint x="120" y="425" as="targetPoint" />
          </mxGeometry>
        </mxCell>
        <mxCell id="vH0KbwVFjzK0gVxRwM7X-84" value="" style="endArrow=classic;html=1;rounded=0;exitX=0.5;exitY=1;exitDx=0;exitDy=0;" edge="1" parent="1" source="vH0KbwVFjzK0gVxRwM7X-77">
          <mxGeometry width="50" height="50" relative="1" as="geometry">
            <mxPoint x="380" y="450" as="sourcePoint" />
            <mxPoint x="260" y="490" as="targetPoint" />
          </mxGeometry>
        </mxCell>
        <mxCell id="vH0KbwVFjzK0gVxRwM7X-86" value="32&lt;span style=&quot;background-color: transparent; color: light-dark(rgb(0, 0, 0), rgb(255, 255, 255));&quot;&gt;&amp;nbsp;м&lt;/span&gt;" style="text;html=1;align=center;verticalAlign=middle;resizable=0;points=[];autosize=1;strokeColor=none;fillColor=none;" vertex="1" parent="1">
          <mxGeometry x="270" y="220" width="50" height="30" as="geometry" />
        </mxCell>
        <mxCell id="vH0KbwVFjzK0gVxRwM7X-88" value="87.96" style="text;html=1;align=center;verticalAlign=middle;resizable=0;points=[];autosize=1;strokeColor=none;fillColor=none;fontStyle=1" vertex="1" parent="1">
          <mxGeometry x="135" y="250" width="50" height="30" as="geometry" />
        </mxCell>
        <mxCell id="vH0KbwVFjzK0gVxRwM7X-89" value="66.01" style="text;html=1;align=center;verticalAlign=middle;resizable=0;points=[];autosize=1;strokeColor=none;fillColor=none;" vertex="1" parent="1">
          <mxGeometry x="135" y="280" width="50" height="30" as="geometry" />
        </mxCell>
        <mxCell id="vH0KbwVFjzK0gVxRwM7X-90" value="&lt;b&gt;105.46&lt;/b&gt;&lt;div&gt;84.01&lt;/div&gt;" style="text;html=1;align=center;verticalAlign=middle;resizable=0;points=[];autosize=1;strokeColor=none;fillColor=none;" vertex="1" parent="1">
          <mxGeometry x="270" y="330" width="60" height="40" as="geometry" />
        </mxCell>
        <mxCell id="vH0KbwVFjzK0gVxRwM7X-94" value="&lt;span style=&quot;font-size:12.0pt;line-height:&lt;br/&gt;115%;font-family:&amp;quot;Times New Roman&amp;quot;,serif;mso-fareast-font-family:Calibri;&lt;br/&gt;mso-ansi-language:EN-US;mso-fareast-language:EN-US;mso-bidi-language:AR-SA&quot; lang=&quot;EN-US&quot;&gt;TAH&lt;/span&gt;&lt;span style=&quot;font-size:12.0pt;line-height:115%;font-family:&amp;quot;Times New Roman&amp;quot;,serif;&lt;br/&gt;mso-fareast-font-family:Calibri;mso-ansi-language:RU;mso-fareast-language:EN-US;&lt;br/&gt;mso-bidi-language:AR-SA&quot; lang=&quot;EN-US&quot;&gt; &lt;/span&gt;&lt;span style=&quot;font-size:12.0pt;line-height:&lt;br/&gt;115%;font-family:&amp;quot;Times New Roman&amp;quot;,serif;mso-fareast-font-family:Calibri;&lt;br/&gt;mso-ansi-language:RU;mso-fareast-language:EN-US;mso-bidi-language:AR-SA&quot;&gt;420F&lt;br&gt;&lt;/span&gt;" style="rounded=0;whiteSpace=wrap;html=1;" vertex="1" parent="1">
          <mxGeometry x="200" y="490" width="120" height="60" as="geometry" />
        </mxCell>
        <mxCell id="vH0KbwVFjzK0gVxRwM7X-96" value="" style="endArrow=classic;html=1;rounded=0;exitX=0;exitY=0.25;exitDx=0;exitDy=0;" edge="1" parent="1" source="vH0KbwVFjzK0gVxRwM7X-94">
          <mxGeometry width="50" height="50" relative="1" as="geometry">
            <mxPoint x="470" y="600" as="sourcePoint" />
            <mxPoint x="120" y="505" as="targetPoint" />
          </mxGeometry>
        </mxCell>
        <mxCell id="vH0KbwVFjzK0gVxRwM7X-97" value="" style="endArrow=classic;html=1;rounded=0;exitX=0;exitY=0.75;exitDx=0;exitDy=0;" edge="1" parent="1" source="vH0KbwVFjzK0gVxRwM7X-94">
          <mxGeometry width="50" height="50" relative="1" as="geometry">
            <mxPoint x="470" y="600" as="sourcePoint" />
            <mxPoint x="120" y="535" as="targetPoint" />
          </mxGeometry>
        </mxCell>
        <mxCell id="vH0KbwVFjzK0gVxRwM7X-101" value="" style="endArrow=classic;html=1;rounded=0;exitX=0.5;exitY=1;exitDx=0;exitDy=0;" edge="1" parent="1" source="vH0KbwVFjzK0gVxRwM7X-94">
          <mxGeometry width="50" height="50" relative="1" as="geometry">
            <mxPoint x="380" y="560" as="sourcePoint" />
            <mxPoint x="260" y="600" as="targetPoint" />
          </mxGeometry>
        </mxCell>
        <mxCell id="vH0KbwVFjzK0gVxRwM7X-112" value="&lt;span style=&quot;font-size:12.0pt;line-height:115%;&lt;br/&gt;font-family:&amp;quot;Times New Roman&amp;quot;,serif;mso-fareast-font-family:Calibri;mso-ansi-language:&lt;br/&gt;RU;mso-fareast-language:EN-US;mso-bidi-language:AR-SA&quot;&gt;WA-126&lt;/span&gt;" style="rounded=0;whiteSpace=wrap;html=1;" vertex="1" parent="1">
          <mxGeometry x="200" y="600" width="120" height="60" as="geometry" />
        </mxCell>
        <mxCell id="vH0KbwVFjzK0gVxRwM7X-115" value="&lt;span style=&quot;font-size:12.0pt;line-height:&lt;br/&gt;115%;font-family:&amp;quot;Times New Roman&amp;quot;,serif;mso-fareast-font-family:Calibri;&lt;br/&gt;mso-ansi-language:EN-US;mso-fareast-language:EN-US;mso-bidi-language:AR-SA&quot; lang=&quot;EN-US&quot;&gt;TAH&lt;/span&gt;&lt;span style=&quot;font-size:12.0pt;line-height:115%;font-family:&amp;quot;Times New Roman&amp;quot;,serif;&lt;br/&gt;mso-fareast-font-family:Calibri;mso-ansi-language:RU;mso-fareast-language:EN-US;&lt;br/&gt;mso-bidi-language:AR-SA&quot; lang=&quot;EN-US&quot;&gt; &lt;/span&gt;&lt;span style=&quot;font-size:12.0pt;line-height:&lt;br/&gt;115%;font-family:&amp;quot;Times New Roman&amp;quot;,serif;mso-fareast-font-family:Calibri;&lt;br/&gt;mso-ansi-language:RU;mso-fareast-language:EN-US;mso-bidi-language:AR-SA&quot;&gt;420F&lt;br&gt;&lt;/span&gt;" style="rounded=0;whiteSpace=wrap;html=1;" vertex="1" parent="1">
          <mxGeometry x="200" y="710" width="120" height="60" as="geometry" />
        </mxCell>
        <mxCell id="vH0KbwVFjzK0gVxRwM7X-117" value="" style="endArrow=classic;html=1;rounded=0;exitX=0;exitY=0.25;exitDx=0;exitDy=0;" edge="1" parent="1" source="vH0KbwVFjzK0gVxRwM7X-115">
          <mxGeometry width="50" height="50" relative="1" as="geometry">
            <mxPoint x="470" y="820" as="sourcePoint" />
            <mxPoint x="120" y="725" as="targetPoint" />
          </mxGeometry>
        </mxCell>
        <mxCell id="vH0KbwVFjzK0gVxRwM7X-118" value="" style="endArrow=classic;html=1;rounded=0;exitX=0;exitY=0.75;exitDx=0;exitDy=0;" edge="1" parent="1" source="vH0KbwVFjzK0gVxRwM7X-115">
          <mxGeometry width="50" height="50" relative="1" as="geometry">
            <mxPoint x="470" y="820" as="sourcePoint" />
            <mxPoint x="120" y="755" as="targetPoint" />
          </mxGeometry>
        </mxCell>
        <mxCell id="vH0KbwVFjzK0gVxRwM7X-122" value="" style="endArrow=classic;html=1;rounded=0;exitX=0.5;exitY=1;exitDx=0;exitDy=0;" edge="1" parent="1" source="vH0KbwVFjzK0gVxRwM7X-115">
          <mxGeometry width="50" height="50" relative="1" as="geometry">
            <mxPoint x="380" y="780" as="sourcePoint" />
            <mxPoint x="260" y="820" as="targetPoint" />
          </mxGeometry>
        </mxCell>
        <mxCell id="vH0KbwVFjzK0gVxRwM7X-123" value="&lt;span style=&quot;font-size:12.0pt;line-height:&lt;br/&gt;115%;font-family:&amp;quot;Times New Roman&amp;quot;,serif;mso-fareast-font-family:Calibri;&lt;br/&gt;mso-ansi-language:EN-US;mso-fareast-language:EN-US;mso-bidi-language:AR-SA&quot; lang=&quot;EN-US&quot;&gt;TAH&lt;/span&gt;&lt;span style=&quot;font-size:12.0pt;line-height:115%;font-family:&amp;quot;Times New Roman&amp;quot;,serif;&lt;br/&gt;mso-fareast-font-family:Calibri;mso-ansi-language:RU;mso-fareast-language:EN-US;&lt;br/&gt;mso-bidi-language:AR-SA&quot; lang=&quot;EN-US&quot;&gt; &lt;/span&gt;&lt;span style=&quot;font-size:12.0pt;line-height:&lt;br/&gt;115%;font-family:&amp;quot;Times New Roman&amp;quot;,serif;mso-fareast-font-family:Calibri;&lt;br/&gt;mso-ansi-language:RU;mso-fareast-language:EN-US;mso-bidi-language:AR-SA&quot;&gt;420F&lt;br&gt;&lt;/span&gt;" style="rounded=0;whiteSpace=wrap;html=1;" vertex="1" parent="1">
          <mxGeometry x="200" y="820" width="120" height="60" as="geometry" />
        </mxCell>
        <mxCell id="vH0KbwVFjzK0gVxRwM7X-125" value="" style="endArrow=classic;html=1;rounded=0;exitX=0;exitY=0.25;exitDx=0;exitDy=0;" edge="1" parent="1" source="vH0KbwVFjzK0gVxRwM7X-123">
          <mxGeometry width="50" height="50" relative="1" as="geometry">
            <mxPoint x="470" y="930" as="sourcePoint" />
            <mxPoint x="120" y="835" as="targetPoint" />
          </mxGeometry>
        </mxCell>
        <mxCell id="vH0KbwVFjzK0gVxRwM7X-126" value="" style="endArrow=classic;html=1;rounded=0;exitX=0;exitY=0.75;exitDx=0;exitDy=0;" edge="1" parent="1" source="vH0KbwVFjzK0gVxRwM7X-123">
          <mxGeometry width="50" height="50" relative="1" as="geometry">
            <mxPoint x="470" y="930" as="sourcePoint" />
            <mxPoint x="120" y="865" as="targetPoint" />
          </mxGeometry>
        </mxCell>
        <mxCell id="vH0KbwVFjzK0gVxRwM7X-130" value="" style="endArrow=classic;html=1;rounded=0;exitX=0.5;exitY=1;exitDx=0;exitDy=0;" edge="1" parent="1" source="vH0KbwVFjzK0gVxRwM7X-123">
          <mxGeometry width="50" height="50" relative="1" as="geometry">
            <mxPoint x="380" y="890" as="sourcePoint" />
            <mxPoint x="260" y="930" as="targetPoint" />
          </mxGeometry>
        </mxCell>
        <mxCell id="vH0KbwVFjzK0gVxRwM7X-131" value="&lt;span style=&quot;font-size:12.0pt;line-height:&lt;br/&gt;115%;font-family:&amp;quot;Times New Roman&amp;quot;,serif;mso-fareast-font-family:Calibri;&lt;br/&gt;mso-ansi-language:EN-US;mso-fareast-language:EN-US;mso-bidi-language:AR-SA&quot; lang=&quot;EN-US&quot;&gt;TAH&lt;/span&gt;&lt;span style=&quot;font-size:12.0pt;line-height:115%;font-family:&amp;quot;Times New Roman&amp;quot;,serif;&lt;br/&gt;mso-fareast-font-family:Calibri;mso-ansi-language:RU;mso-fareast-language:EN-US;&lt;br/&gt;mso-bidi-language:AR-SA&quot; lang=&quot;EN-US&quot;&gt; &lt;/span&gt;&lt;span style=&quot;font-size:12.0pt;line-height:&lt;br/&gt;115%;font-family:&amp;quot;Times New Roman&amp;quot;,serif;mso-fareast-font-family:Calibri;&lt;br/&gt;mso-ansi-language:RU;mso-fareast-language:EN-US;mso-bidi-language:AR-SA&quot;&gt;420F&lt;br&gt;&lt;/span&gt;" style="rounded=0;whiteSpace=wrap;html=1;" vertex="1" parent="1">
          <mxGeometry x="200" y="930" width="120" height="60" as="geometry" />
        </mxCell>
        <mxCell id="vH0KbwVFjzK0gVxRwM7X-133" value="" style="endArrow=classic;html=1;rounded=0;exitX=0;exitY=0.25;exitDx=0;exitDy=0;" edge="1" parent="1" source="vH0KbwVFjzK0gVxRwM7X-131">
          <mxGeometry width="50" height="50" relative="1" as="geometry">
            <mxPoint x="470" y="1040" as="sourcePoint" />
            <mxPoint x="120" y="945" as="targetPoint" />
          </mxGeometry>
        </mxCell>
        <mxCell id="vH0KbwVFjzK0gVxRwM7X-134" value="" style="endArrow=classic;html=1;rounded=0;exitX=0;exitY=0.75;exitDx=0;exitDy=0;" edge="1" parent="1" source="vH0KbwVFjzK0gVxRwM7X-131">
          <mxGeometry width="50" height="50" relative="1" as="geometry">
            <mxPoint x="470" y="1040" as="sourcePoint" />
            <mxPoint x="120" y="975" as="targetPoint" />
          </mxGeometry>
        </mxCell>
        <mxCell id="vH0KbwVFjzK0gVxRwM7X-141" value="" style="endArrow=classic;html=1;rounded=0;exitX=0.5;exitY=1;exitDx=0;exitDy=0;entryX=0.5;entryY=0;entryDx=0;entryDy=0;" edge="1" parent="1" source="vH0KbwVFjzK0gVxRwM7X-112">
          <mxGeometry width="50" height="50" relative="1" as="geometry">
            <mxPoint x="670" y="745" as="sourcePoint" />
            <mxPoint x="260" y="710" as="targetPoint" />
          </mxGeometry>
        </mxCell>
        <mxCell id="vH0KbwVFjzK0gVxRwM7X-142" value="&lt;b&gt;85.1&lt;/b&gt;" style="text;html=1;align=center;verticalAlign=middle;resizable=0;points=[];autosize=1;strokeColor=none;fillColor=none;" vertex="1" parent="1">
          <mxGeometry x="135" y="368" width="50" height="30" as="geometry" />
        </mxCell>
        <mxCell id="vH0KbwVFjzK0gVxRwM7X-143" value="&lt;b&gt;82.23&lt;/b&gt;" style="text;html=1;align=center;verticalAlign=middle;resizable=0;points=[];autosize=1;strokeColor=none;fillColor=none;" vertex="1" parent="1">
          <mxGeometry x="135" y="480" width="50" height="30" as="geometry" />
        </mxCell>
        <mxCell id="vH0KbwVFjzK0gVxRwM7X-145" value="&lt;b&gt;109.37&lt;/b&gt;" style="text;html=1;align=center;verticalAlign=middle;resizable=0;points=[];autosize=1;strokeColor=none;fillColor=none;" vertex="1" parent="1">
          <mxGeometry x="130" y="700" width="60" height="30" as="geometry" />
        </mxCell>
        <mxCell id="vH0KbwVFjzK0gVxRwM7X-146" value="&lt;b&gt;106.51&lt;/b&gt;" style="text;html=1;align=center;verticalAlign=middle;resizable=0;points=[];autosize=1;strokeColor=none;fillColor=none;" vertex="1" parent="1">
          <mxGeometry x="130" y="810" width="60" height="30" as="geometry" />
        </mxCell>
        <mxCell id="vH0KbwVFjzK0gVxRwM7X-147" value="&lt;b&gt;103.64&lt;/b&gt;" style="text;html=1;align=center;verticalAlign=middle;resizable=0;points=[];autosize=1;strokeColor=none;fillColor=none;" vertex="1" parent="1">
          <mxGeometry x="130" y="920" width="60" height="30" as="geometry" />
        </mxCell>
        <mxCell id="vH0KbwVFjzK0gVxRwM7X-148" value="" style="edgeStyle=orthogonalEdgeStyle;rounded=0;orthogonalLoop=1;jettySize=auto;html=1;" edge="1" parent="1" source="vH0KbwVFjzK0gVxRwM7X-151" target="vH0KbwVFjzK0gVxRwM7X-154">
          <mxGeometry relative="1" as="geometry" />
        </mxCell>
        <mxCell id="vH0KbwVFjzK0gVxRwM7X-149" style="edgeStyle=orthogonalEdgeStyle;rounded=0;orthogonalLoop=1;jettySize=auto;html=1;exitX=0.5;exitY=1;exitDx=0;exitDy=0;entryX=0.5;entryY=0;entryDx=0;entryDy=0;" edge="1" parent="1" source="vH0KbwVFjzK0gVxRwM7X-151" target="vH0KbwVFjzK0gVxRwM7X-154">
          <mxGeometry relative="1" as="geometry" />
        </mxCell>
        <mxCell id="vH0KbwVFjzK0gVxRwM7X-150" style="edgeStyle=orthogonalEdgeStyle;rounded=0;orthogonalLoop=1;jettySize=auto;html=1;exitX=0.5;exitY=1;exitDx=0;exitDy=0;entryX=0.5;entryY=0;entryDx=0;entryDy=0;strokeColor=light-dark(#000000,#000000);" edge="1" parent="1" source="vH0KbwVFjzK0gVxRwM7X-151" target="vH0KbwVFjzK0gVxRwM7X-154">
          <mxGeometry relative="1" as="geometry" />
        </mxCell>
        <mxCell id="vH0KbwVFjzK0gVxRwM7X-151" value="ГС" style="rounded=0;whiteSpace=wrap;html=1;" vertex="1" parent="1">
          <mxGeometry x="790" y="150" width="120" height="60" as="geometry" />
        </mxCell>
        <mxCell id="vH0KbwVFjzK0gVxRwM7X-153" style="edgeStyle=orthogonalEdgeStyle;rounded=0;orthogonalLoop=1;jettySize=auto;html=1;exitX=1;exitY=0.5;exitDx=0;exitDy=0;" edge="1" parent="1" source="vH0KbwVFjzK0gVxRwM7X-154" target="vH0KbwVFjzK0gVxRwM7X-156">
          <mxGeometry relative="1" as="geometry" />
        </mxCell>
        <mxCell id="vH0KbwVFjzK0gVxRwM7X-154" value="SAH 408F" style="rounded=0;whiteSpace=wrap;html=1;" vertex="1" parent="1">
          <mxGeometry x="790" y="260" width="120" height="60" as="geometry" />
        </mxCell>
        <mxCell id="vH0KbwVFjzK0gVxRwM7X-155" value="&lt;span style=&quot;font-size:12.0pt;line-height:&lt;br/&gt;115%;font-family:&amp;quot;Times New Roman&amp;quot;,serif;mso-fareast-font-family:Calibri;&lt;br/&gt;mso-ansi-language:EN-US;mso-fareast-language:EN-US;mso-bidi-language:AR-SA&quot; lang=&quot;EN-US&quot;&gt;TAH&lt;/span&gt;&lt;span style=&quot;font-size:12.0pt;line-height:115%;font-family:&amp;quot;Times New Roman&amp;quot;,serif;&lt;br/&gt;mso-fareast-font-family:Calibri;mso-ansi-language:RU;mso-fareast-language:EN-US;&lt;br/&gt;mso-bidi-language:AR-SA&quot; lang=&quot;EN-US&quot;&gt; &lt;/span&gt;&lt;span style=&quot;font-size:12.0pt;line-height:&lt;br/&gt;115%;font-family:&amp;quot;Times New Roman&amp;quot;,serif;mso-fareast-font-family:Calibri;&lt;br/&gt;mso-ansi-language:RU;mso-fareast-language:EN-US;mso-bidi-language:AR-SA&quot;&gt;420F&lt;br&gt;&lt;/span&gt;" style="rounded=0;whiteSpace=wrap;html=1;" vertex="1" parent="1">
          <mxGeometry x="630" y="260" width="120" height="60" as="geometry" />
        </mxCell>
        <mxCell id="vH0KbwVFjzK0gVxRwM7X-156" value="&lt;span style=&quot;font-size:12.0pt;line-height:&lt;br/&gt;115%;font-family:&amp;quot;Times New Roman&amp;quot;,serif;mso-fareast-font-family:Calibri;&lt;br/&gt;mso-ansi-language:EN-US;mso-fareast-language:EN-US;mso-bidi-language:AR-SA&quot; lang=&quot;EN-US&quot;&gt;TAH&lt;/span&gt;&lt;span style=&quot;font-size:12.0pt;line-height:115%;font-family:&amp;quot;Times New Roman&amp;quot;,serif;&lt;br/&gt;mso-fareast-font-family:Calibri;mso-ansi-language:RU;mso-fareast-language:EN-US;&lt;br/&gt;mso-bidi-language:AR-SA&quot; lang=&quot;EN-US&quot;&gt; &lt;/span&gt;&lt;span style=&quot;font-size:12.0pt;line-height:&lt;br/&gt;115%;font-family:&amp;quot;Times New Roman&amp;quot;,serif;mso-fareast-font-family:Calibri;&lt;br/&gt;mso-ansi-language:RU;mso-fareast-language:EN-US;mso-bidi-language:AR-SA&quot;&gt;420F&lt;br&gt;&lt;/span&gt;" style="rounded=0;whiteSpace=wrap;html=1;" vertex="1" parent="1">
          <mxGeometry x="950" y="260" width="120" height="60" as="geometry" />
        </mxCell>
        <mxCell id="vH0KbwVFjzK0gVxRwM7X-157" value="" style="endArrow=classic;html=1;rounded=0;exitX=0;exitY=0.25;exitDx=0;exitDy=0;" edge="1" parent="1" source="vH0KbwVFjzK0gVxRwM7X-155">
          <mxGeometry width="50" height="50" relative="1" as="geometry">
            <mxPoint x="900" y="380" as="sourcePoint" />
            <mxPoint x="550" y="275" as="targetPoint" />
          </mxGeometry>
        </mxCell>
        <mxCell id="vH0KbwVFjzK0gVxRwM7X-158" value="" style="endArrow=classic;html=1;rounded=0;exitX=0;exitY=0.75;exitDx=0;exitDy=0;" edge="1" parent="1" source="vH0KbwVFjzK0gVxRwM7X-155">
          <mxGeometry width="50" height="50" relative="1" as="geometry">
            <mxPoint x="900" y="380" as="sourcePoint" />
            <mxPoint x="550" y="305" as="targetPoint" />
          </mxGeometry>
        </mxCell>
        <mxCell id="vH0KbwVFjzK0gVxRwM7X-159" value="" style="endArrow=classic;html=1;rounded=0;exitX=1;exitY=0.25;exitDx=0;exitDy=0;" edge="1" parent="1" source="vH0KbwVFjzK0gVxRwM7X-156">
          <mxGeometry width="50" height="50" relative="1" as="geometry">
            <mxPoint x="900" y="380" as="sourcePoint" />
            <mxPoint x="1150" y="275" as="targetPoint" />
          </mxGeometry>
        </mxCell>
        <mxCell id="vH0KbwVFjzK0gVxRwM7X-160" value="" style="endArrow=classic;startArrow=none;html=1;rounded=0;exitX=1;exitY=0.75;exitDx=0;exitDy=0;startFill=0;" edge="1" parent="1" source="vH0KbwVFjzK0gVxRwM7X-156">
          <mxGeometry width="50" height="50" relative="1" as="geometry">
            <mxPoint x="900" y="380" as="sourcePoint" />
            <mxPoint x="1150" y="305" as="targetPoint" />
          </mxGeometry>
        </mxCell>
        <mxCell id="vH0KbwVFjzK0gVxRwM7X-161" value="" style="endArrow=classic;html=1;rounded=0;exitX=0.5;exitY=1;exitDx=0;exitDy=0;entryX=0.5;entryY=0;entryDx=0;entryDy=0;" edge="1" parent="1" source="vH0KbwVFjzK0gVxRwM7X-156" target="vH0KbwVFjzK0gVxRwM7X-165">
          <mxGeometry width="50" height="50" relative="1" as="geometry">
            <mxPoint x="900" y="380" as="sourcePoint" />
            <mxPoint x="1010" y="370" as="targetPoint" />
          </mxGeometry>
        </mxCell>
        <mxCell id="vH0KbwVFjzK0gVxRwM7X-162" value="94-120 Дб" style="text;html=1;align=center;verticalAlign=middle;resizable=0;points=[];autosize=1;strokeColor=none;fillColor=none;textShadow=0;fontStyle=0" vertex="1" parent="1">
          <mxGeometry x="760" y="220" width="80" height="30" as="geometry" />
        </mxCell>
        <mxCell id="vH0KbwVFjzK0gVxRwM7X-163" value="" style="endArrow=classic;html=1;rounded=0;exitX=0.5;exitY=1;exitDx=0;exitDy=0;entryX=0.5;entryY=0;entryDx=0;entryDy=0;" edge="1" parent="1" source="vH0KbwVFjzK0gVxRwM7X-155" target="vH0KbwVFjzK0gVxRwM7X-164">
          <mxGeometry width="50" height="50" relative="1" as="geometry">
            <mxPoint x="810" y="340" as="sourcePoint" />
            <mxPoint x="690" y="370" as="targetPoint" />
          </mxGeometry>
        </mxCell>
        <mxCell id="vH0KbwVFjzK0gVxRwM7X-164" value="&lt;span style=&quot;font-size:12.0pt;line-height:&lt;br/&gt;115%;font-family:&amp;quot;Times New Roman&amp;quot;,serif;mso-fareast-font-family:Calibri;&lt;br/&gt;mso-ansi-language:EN-US;mso-fareast-language:EN-US;mso-bidi-language:AR-SA&quot; lang=&quot;EN-US&quot;&gt;TAH&lt;/span&gt;&lt;span style=&quot;font-size:12.0pt;line-height:115%;font-family:&amp;quot;Times New Roman&amp;quot;,serif;&lt;br/&gt;mso-fareast-font-family:Calibri;mso-ansi-language:RU;mso-fareast-language:EN-US;&lt;br/&gt;mso-bidi-language:AR-SA&quot; lang=&quot;EN-US&quot;&gt; &lt;/span&gt;&lt;span style=&quot;font-size:12.0pt;line-height:&lt;br/&gt;115%;font-family:&amp;quot;Times New Roman&amp;quot;,serif;mso-fareast-font-family:Calibri;&lt;br/&gt;mso-ansi-language:RU;mso-fareast-language:EN-US;mso-bidi-language:AR-SA&quot;&gt;420F&lt;br&gt;&lt;/span&gt;" style="rounded=0;whiteSpace=wrap;html=1;" vertex="1" parent="1">
          <mxGeometry x="630" y="380" width="120" height="60" as="geometry" />
        </mxCell>
        <mxCell id="vH0KbwVFjzK0gVxRwM7X-165" value="&lt;span style=&quot;font-size:12.0pt;line-height:&lt;br/&gt;115%;font-family:&amp;quot;Times New Roman&amp;quot;,serif;mso-fareast-font-family:Calibri;&lt;br/&gt;mso-ansi-language:EN-US;mso-fareast-language:EN-US;mso-bidi-language:AR-SA&quot; lang=&quot;EN-US&quot;&gt;TAH&lt;/span&gt;&lt;span style=&quot;font-size:12.0pt;line-height:115%;font-family:&amp;quot;Times New Roman&amp;quot;,serif;&lt;br/&gt;mso-fareast-font-family:Calibri;mso-ansi-language:RU;mso-fareast-language:EN-US;&lt;br/&gt;mso-bidi-language:AR-SA&quot; lang=&quot;EN-US&quot;&gt; &lt;/span&gt;&lt;span style=&quot;font-size:12.0pt;line-height:&lt;br/&gt;115%;font-family:&amp;quot;Times New Roman&amp;quot;,serif;mso-fareast-font-family:Calibri;&lt;br/&gt;mso-ansi-language:RU;mso-fareast-language:EN-US;mso-bidi-language:AR-SA&quot;&gt;420F&lt;br&gt;&lt;/span&gt;" style="rounded=0;whiteSpace=wrap;html=1;" vertex="1" parent="1">
          <mxGeometry x="950" y="380" width="120" height="60" as="geometry" />
        </mxCell>
        <mxCell id="vH0KbwVFjzK0gVxRwM7X-166" value="" style="endArrow=classic;html=1;rounded=0;exitX=0;exitY=0.25;exitDx=0;exitDy=0;" edge="1" parent="1" source="vH0KbwVFjzK0gVxRwM7X-164">
          <mxGeometry width="50" height="50" relative="1" as="geometry">
            <mxPoint x="900" y="490" as="sourcePoint" />
            <mxPoint x="550" y="395" as="targetPoint" />
          </mxGeometry>
        </mxCell>
        <mxCell id="vH0KbwVFjzK0gVxRwM7X-167" value="" style="endArrow=classic;html=1;rounded=0;exitX=0;exitY=0.75;exitDx=0;exitDy=0;" edge="1" parent="1" source="vH0KbwVFjzK0gVxRwM7X-164">
          <mxGeometry width="50" height="50" relative="1" as="geometry">
            <mxPoint x="900" y="490" as="sourcePoint" />
            <mxPoint x="550" y="425" as="targetPoint" />
          </mxGeometry>
        </mxCell>
        <mxCell id="vH0KbwVFjzK0gVxRwM7X-168" value="" style="endArrow=classic;html=1;rounded=0;exitX=1;exitY=0.25;exitDx=0;exitDy=0;" edge="1" parent="1" source="vH0KbwVFjzK0gVxRwM7X-165">
          <mxGeometry width="50" height="50" relative="1" as="geometry">
            <mxPoint x="900" y="490" as="sourcePoint" />
            <mxPoint x="1150" y="395" as="targetPoint" />
          </mxGeometry>
        </mxCell>
        <mxCell id="vH0KbwVFjzK0gVxRwM7X-169" value="" style="endArrow=classic;startArrow=none;html=1;rounded=0;exitX=1;exitY=0.75;exitDx=0;exitDy=0;startFill=0;" edge="1" parent="1" source="vH0KbwVFjzK0gVxRwM7X-165">
          <mxGeometry width="50" height="50" relative="1" as="geometry">
            <mxPoint x="900" y="490" as="sourcePoint" />
            <mxPoint x="1150" y="425" as="targetPoint" />
          </mxGeometry>
        </mxCell>
        <mxCell id="vH0KbwVFjzK0gVxRwM7X-170" value="" style="endArrow=classic;html=1;rounded=0;exitX=0.5;exitY=1;exitDx=0;exitDy=0;" edge="1" parent="1" source="vH0KbwVFjzK0gVxRwM7X-165">
          <mxGeometry width="50" height="50" relative="1" as="geometry">
            <mxPoint x="900" y="490" as="sourcePoint" />
            <mxPoint x="1010" y="490" as="targetPoint" />
          </mxGeometry>
        </mxCell>
        <mxCell id="vH0KbwVFjzK0gVxRwM7X-171" value="" style="endArrow=classic;html=1;rounded=0;exitX=0.5;exitY=1;exitDx=0;exitDy=0;" edge="1" parent="1" source="vH0KbwVFjzK0gVxRwM7X-164">
          <mxGeometry width="50" height="50" relative="1" as="geometry">
            <mxPoint x="810" y="450" as="sourcePoint" />
            <mxPoint x="690" y="490" as="targetPoint" />
          </mxGeometry>
        </mxCell>
        <mxCell id="vH0KbwVFjzK0gVxRwM7X-172" value="18 м" style="text;html=1;align=center;verticalAlign=middle;resizable=0;points=[];autosize=1;strokeColor=none;fillColor=none;" vertex="1" parent="1">
          <mxGeometry x="750" y="260" width="50" height="30" as="geometry" />
        </mxCell>
        <mxCell id="vH0KbwVFjzK0gVxRwM7X-173" value="18 м" style="text;html=1;align=center;verticalAlign=middle;resizable=0;points=[];autosize=1;strokeColor=none;fillColor=none;" vertex="1" parent="1">
          <mxGeometry x="900" y="260" width="50" height="30" as="geometry" />
        </mxCell>
        <mxCell id="vH0KbwVFjzK0gVxRwM7X-174" value="89.64" style="text;html=1;align=center;verticalAlign=middle;resizable=0;points=[];autosize=1;strokeColor=none;fillColor=none;fontStyle=1" vertex="1" parent="1">
          <mxGeometry x="565" y="250" width="50" height="30" as="geometry" />
        </mxCell>
        <mxCell id="vH0KbwVFjzK0gVxRwM7X-175" value="66.44" style="text;html=1;align=center;verticalAlign=middle;resizable=0;points=[];autosize=1;strokeColor=none;fillColor=none;" vertex="1" parent="1">
          <mxGeometry x="565" y="280" width="50" height="30" as="geometry" />
        </mxCell>
        <mxCell id="vH0KbwVFjzK0gVxRwM7X-176" value="&lt;b&gt;107.14&lt;/b&gt;&lt;div&gt;84.44&lt;/div&gt;" style="text;html=1;align=center;verticalAlign=middle;resizable=0;points=[];autosize=1;strokeColor=none;fillColor=none;" vertex="1" parent="1">
          <mxGeometry x="700" y="330" width="60" height="40" as="geometry" />
        </mxCell>
        <mxCell id="vH0KbwVFjzK0gVxRwM7X-180" value="&lt;span style=&quot;font-size:12.0pt;line-height:&lt;br/&gt;115%;font-family:&amp;quot;Times New Roman&amp;quot;,serif;mso-fareast-font-family:Calibri;&lt;br/&gt;mso-ansi-language:EN-US;mso-fareast-language:EN-US;mso-bidi-language:AR-SA&quot; lang=&quot;EN-US&quot;&gt;TAH&lt;/span&gt;&lt;span style=&quot;font-size:12.0pt;line-height:115%;font-family:&amp;quot;Times New Roman&amp;quot;,serif;&lt;br/&gt;mso-fareast-font-family:Calibri;mso-ansi-language:RU;mso-fareast-language:EN-US;&lt;br/&gt;mso-bidi-language:AR-SA&quot; lang=&quot;EN-US&quot;&gt; &lt;/span&gt;&lt;span style=&quot;font-size:12.0pt;line-height:&lt;br/&gt;115%;font-family:&amp;quot;Times New Roman&amp;quot;,serif;mso-fareast-font-family:Calibri;&lt;br/&gt;mso-ansi-language:RU;mso-fareast-language:EN-US;mso-bidi-language:AR-SA&quot;&gt;420F&lt;br&gt;&lt;/span&gt;" style="rounded=0;whiteSpace=wrap;html=1;" vertex="1" parent="1">
          <mxGeometry x="630" y="490" width="120" height="60" as="geometry" />
        </mxCell>
        <mxCell id="vH0KbwVFjzK0gVxRwM7X-181" value="&lt;span style=&quot;font-size:12.0pt;line-height:&lt;br/&gt;115%;font-family:&amp;quot;Times New Roman&amp;quot;,serif;mso-fareast-font-family:Calibri;&lt;br/&gt;mso-ansi-language:EN-US;mso-fareast-language:EN-US;mso-bidi-language:AR-SA&quot; lang=&quot;EN-US&quot;&gt;TAH&lt;/span&gt;&lt;span style=&quot;font-size:12.0pt;line-height:115%;font-family:&amp;quot;Times New Roman&amp;quot;,serif;&lt;br/&gt;mso-fareast-font-family:Calibri;mso-ansi-language:RU;mso-fareast-language:EN-US;&lt;br/&gt;mso-bidi-language:AR-SA&quot; lang=&quot;EN-US&quot;&gt; &lt;/span&gt;&lt;span style=&quot;font-size:12.0pt;line-height:&lt;br/&gt;115%;font-family:&amp;quot;Times New Roman&amp;quot;,serif;mso-fareast-font-family:Calibri;&lt;br/&gt;mso-ansi-language:RU;mso-fareast-language:EN-US;mso-bidi-language:AR-SA&quot;&gt;420F&lt;br&gt;&lt;/span&gt;" style="rounded=0;whiteSpace=wrap;html=1;" vertex="1" parent="1">
          <mxGeometry x="950" y="490" width="120" height="60" as="geometry" />
        </mxCell>
        <mxCell id="vH0KbwVFjzK0gVxRwM7X-182" value="" style="endArrow=classic;html=1;rounded=0;exitX=0;exitY=0.25;exitDx=0;exitDy=0;" edge="1" parent="1" source="vH0KbwVFjzK0gVxRwM7X-180">
          <mxGeometry width="50" height="50" relative="1" as="geometry">
            <mxPoint x="900" y="600" as="sourcePoint" />
            <mxPoint x="550" y="505" as="targetPoint" />
          </mxGeometry>
        </mxCell>
        <mxCell id="vH0KbwVFjzK0gVxRwM7X-183" value="" style="endArrow=classic;html=1;rounded=0;exitX=0;exitY=0.75;exitDx=0;exitDy=0;" edge="1" parent="1" source="vH0KbwVFjzK0gVxRwM7X-180">
          <mxGeometry width="50" height="50" relative="1" as="geometry">
            <mxPoint x="900" y="600" as="sourcePoint" />
            <mxPoint x="550" y="535" as="targetPoint" />
          </mxGeometry>
        </mxCell>
        <mxCell id="vH0KbwVFjzK0gVxRwM7X-184" value="" style="endArrow=classic;html=1;rounded=0;exitX=1;exitY=0.25;exitDx=0;exitDy=0;" edge="1" parent="1" source="vH0KbwVFjzK0gVxRwM7X-181">
          <mxGeometry width="50" height="50" relative="1" as="geometry">
            <mxPoint x="900" y="600" as="sourcePoint" />
            <mxPoint x="1150" y="505" as="targetPoint" />
          </mxGeometry>
        </mxCell>
        <mxCell id="vH0KbwVFjzK0gVxRwM7X-185" value="" style="endArrow=classic;startArrow=none;html=1;rounded=0;exitX=1;exitY=0.75;exitDx=0;exitDy=0;startFill=0;" edge="1" parent="1" source="vH0KbwVFjzK0gVxRwM7X-181">
          <mxGeometry width="50" height="50" relative="1" as="geometry">
            <mxPoint x="900" y="600" as="sourcePoint" />
            <mxPoint x="1150" y="535" as="targetPoint" />
          </mxGeometry>
        </mxCell>
        <mxCell id="vH0KbwVFjzK0gVxRwM7X-186" value="" style="endArrow=classic;html=1;rounded=0;exitX=0.5;exitY=1;exitDx=0;exitDy=0;" edge="1" parent="1" source="vH0KbwVFjzK0gVxRwM7X-181">
          <mxGeometry width="50" height="50" relative="1" as="geometry">
            <mxPoint x="900" y="600" as="sourcePoint" />
            <mxPoint x="1010" y="600" as="targetPoint" />
          </mxGeometry>
        </mxCell>
        <mxCell id="vH0KbwVFjzK0gVxRwM7X-187" value="" style="endArrow=classic;html=1;rounded=0;exitX=0.5;exitY=1;exitDx=0;exitDy=0;" edge="1" parent="1" source="vH0KbwVFjzK0gVxRwM7X-180">
          <mxGeometry width="50" height="50" relative="1" as="geometry">
            <mxPoint x="810" y="560" as="sourcePoint" />
            <mxPoint x="690" y="600" as="targetPoint" />
          </mxGeometry>
        </mxCell>
        <mxCell id="vH0KbwVFjzK0gVxRwM7X-188" value="&lt;span style=&quot;font-size:12.0pt;line-height:&lt;br/&gt;115%;font-family:&amp;quot;Times New Roman&amp;quot;,serif;mso-fareast-font-family:Calibri;&lt;br/&gt;mso-ansi-language:EN-US;mso-fareast-language:EN-US;mso-bidi-language:AR-SA&quot; lang=&quot;EN-US&quot;&gt;TAH&lt;/span&gt;&lt;span style=&quot;font-size:12.0pt;line-height:115%;font-family:&amp;quot;Times New Roman&amp;quot;,serif;&lt;br/&gt;mso-fareast-font-family:Calibri;mso-ansi-language:RU;mso-fareast-language:EN-US;&lt;br/&gt;mso-bidi-language:AR-SA&quot; lang=&quot;EN-US&quot;&gt; &lt;/span&gt;&lt;span style=&quot;font-size:12.0pt;line-height:&lt;br/&gt;115%;font-family:&amp;quot;Times New Roman&amp;quot;,serif;mso-fareast-font-family:Calibri;&lt;br/&gt;mso-ansi-language:RU;mso-fareast-language:EN-US;mso-bidi-language:AR-SA&quot;&gt;420F&lt;br&gt;&lt;/span&gt;" style="rounded=0;whiteSpace=wrap;html=1;" vertex="1" parent="1">
          <mxGeometry x="630" y="600" width="120" height="60" as="geometry" />
        </mxCell>
        <mxCell id="vH0KbwVFjzK0gVxRwM7X-189" value="&lt;span style=&quot;font-size:12.0pt;line-height:&lt;br/&gt;115%;font-family:&amp;quot;Times New Roman&amp;quot;,serif;mso-fareast-font-family:Calibri;&lt;br/&gt;mso-ansi-language:EN-US;mso-fareast-language:EN-US;mso-bidi-language:AR-SA&quot; lang=&quot;EN-US&quot;&gt;TAH&lt;/span&gt;&lt;span style=&quot;font-size:12.0pt;line-height:115%;font-family:&amp;quot;Times New Roman&amp;quot;,serif;&lt;br/&gt;mso-fareast-font-family:Calibri;mso-ansi-language:RU;mso-fareast-language:EN-US;&lt;br/&gt;mso-bidi-language:AR-SA&quot; lang=&quot;EN-US&quot;&gt; &lt;/span&gt;&lt;span style=&quot;font-size:12.0pt;line-height:&lt;br/&gt;115%;font-family:&amp;quot;Times New Roman&amp;quot;,serif;mso-fareast-font-family:Calibri;&lt;br/&gt;mso-ansi-language:RU;mso-fareast-language:EN-US;mso-bidi-language:AR-SA&quot;&gt;420F&lt;br&gt;&lt;/span&gt;" style="rounded=0;whiteSpace=wrap;html=1;" vertex="1" parent="1">
          <mxGeometry x="950" y="600" width="120" height="60" as="geometry" />
        </mxCell>
        <mxCell id="vH0KbwVFjzK0gVxRwM7X-190" value="" style="endArrow=classic;html=1;rounded=0;exitX=0;exitY=0.25;exitDx=0;exitDy=0;" edge="1" parent="1" source="vH0KbwVFjzK0gVxRwM7X-188">
          <mxGeometry width="50" height="50" relative="1" as="geometry">
            <mxPoint x="900" y="710" as="sourcePoint" />
            <mxPoint x="550" y="615" as="targetPoint" />
          </mxGeometry>
        </mxCell>
        <mxCell id="vH0KbwVFjzK0gVxRwM7X-191" value="" style="endArrow=classic;html=1;rounded=0;exitX=0;exitY=0.75;exitDx=0;exitDy=0;" edge="1" parent="1" source="vH0KbwVFjzK0gVxRwM7X-188">
          <mxGeometry width="50" height="50" relative="1" as="geometry">
            <mxPoint x="900" y="710" as="sourcePoint" />
            <mxPoint x="550" y="645" as="targetPoint" />
          </mxGeometry>
        </mxCell>
        <mxCell id="vH0KbwVFjzK0gVxRwM7X-192" value="" style="endArrow=classic;html=1;rounded=0;exitX=1;exitY=0.25;exitDx=0;exitDy=0;" edge="1" parent="1" source="vH0KbwVFjzK0gVxRwM7X-189">
          <mxGeometry width="50" height="50" relative="1" as="geometry">
            <mxPoint x="900" y="710" as="sourcePoint" />
            <mxPoint x="1150" y="615" as="targetPoint" />
          </mxGeometry>
        </mxCell>
        <mxCell id="vH0KbwVFjzK0gVxRwM7X-193" value="" style="endArrow=classic;startArrow=none;html=1;rounded=0;exitX=1;exitY=0.75;exitDx=0;exitDy=0;startFill=0;" edge="1" parent="1" source="vH0KbwVFjzK0gVxRwM7X-189">
          <mxGeometry width="50" height="50" relative="1" as="geometry">
            <mxPoint x="900" y="710" as="sourcePoint" />
            <mxPoint x="1150" y="645" as="targetPoint" />
          </mxGeometry>
        </mxCell>
        <mxCell id="vH0KbwVFjzK0gVxRwM7X-194" value="" style="endArrow=classic;html=1;rounded=0;exitX=0.5;exitY=1;exitDx=0;exitDy=0;" edge="1" parent="1" source="vH0KbwVFjzK0gVxRwM7X-189">
          <mxGeometry width="50" height="50" relative="1" as="geometry">
            <mxPoint x="900" y="710" as="sourcePoint" />
            <mxPoint x="1010" y="710" as="targetPoint" />
          </mxGeometry>
        </mxCell>
        <mxCell id="vH0KbwVFjzK0gVxRwM7X-195" value="" style="endArrow=classic;html=1;rounded=0;exitX=0.5;exitY=1;exitDx=0;exitDy=0;" edge="1" parent="1" source="vH0KbwVFjzK0gVxRwM7X-188">
          <mxGeometry width="50" height="50" relative="1" as="geometry">
            <mxPoint x="810" y="670" as="sourcePoint" />
            <mxPoint x="690" y="710" as="targetPoint" />
          </mxGeometry>
        </mxCell>
        <mxCell id="vH0KbwVFjzK0gVxRwM7X-196" value="&lt;span style=&quot;font-size:12.0pt;line-height:115%;&lt;br/&gt;font-family:&amp;quot;Times New Roman&amp;quot;,serif;mso-fareast-font-family:Calibri;mso-ansi-language:&lt;br/&gt;RU;mso-fareast-language:EN-US;mso-bidi-language:AR-SA&quot;&gt;WA-126&lt;/span&gt;" style="rounded=0;whiteSpace=wrap;html=1;" vertex="1" parent="1">
          <mxGeometry x="630" y="710" width="120" height="60" as="geometry" />
        </mxCell>
        <mxCell id="vH0KbwVFjzK0gVxRwM7X-197" value="&lt;span style=&quot;font-size:12.0pt;line-height:115%;&lt;br/&gt;font-family:&amp;quot;Times New Roman&amp;quot;,serif;mso-fareast-font-family:Calibri;mso-ansi-language:&lt;br/&gt;RU;mso-fareast-language:EN-US;mso-bidi-language:AR-SA&quot;&gt;WA-126&lt;/span&gt;" style="rounded=0;whiteSpace=wrap;html=1;" vertex="1" parent="1">
          <mxGeometry x="950" y="710" width="120" height="60" as="geometry" />
        </mxCell>
        <mxCell id="vH0KbwVFjzK0gVxRwM7X-198" value="&lt;span style=&quot;font-size:12.0pt;line-height:&lt;br/&gt;115%;font-family:&amp;quot;Times New Roman&amp;quot;,serif;mso-fareast-font-family:Calibri;&lt;br/&gt;mso-ansi-language:EN-US;mso-fareast-language:EN-US;mso-bidi-language:AR-SA&quot; lang=&quot;EN-US&quot;&gt;TAH&lt;/span&gt;&lt;span style=&quot;font-size:12.0pt;line-height:115%;font-family:&amp;quot;Times New Roman&amp;quot;,serif;&lt;br/&gt;mso-fareast-font-family:Calibri;mso-ansi-language:RU;mso-fareast-language:EN-US;&lt;br/&gt;mso-bidi-language:AR-SA&quot; lang=&quot;EN-US&quot;&gt; &lt;/span&gt;&lt;span style=&quot;font-size:12.0pt;line-height:&lt;br/&gt;115%;font-family:&amp;quot;Times New Roman&amp;quot;,serif;mso-fareast-font-family:Calibri;&lt;br/&gt;mso-ansi-language:RU;mso-fareast-language:EN-US;mso-bidi-language:AR-SA&quot;&gt;420F&lt;br&gt;&lt;/span&gt;" style="rounded=0;whiteSpace=wrap;html=1;" vertex="1" parent="1">
          <mxGeometry x="630" y="820" width="120" height="60" as="geometry" />
        </mxCell>
        <mxCell id="vH0KbwVFjzK0gVxRwM7X-199" value="&lt;span style=&quot;font-size:12.0pt;line-height:&lt;br/&gt;115%;font-family:&amp;quot;Times New Roman&amp;quot;,serif;mso-fareast-font-family:Calibri;&lt;br/&gt;mso-ansi-language:EN-US;mso-fareast-language:EN-US;mso-bidi-language:AR-SA&quot; lang=&quot;EN-US&quot;&gt;TAH&lt;/span&gt;&lt;span style=&quot;font-size:12.0pt;line-height:115%;font-family:&amp;quot;Times New Roman&amp;quot;,serif;&lt;br/&gt;mso-fareast-font-family:Calibri;mso-ansi-language:RU;mso-fareast-language:EN-US;&lt;br/&gt;mso-bidi-language:AR-SA&quot; lang=&quot;EN-US&quot;&gt; &lt;/span&gt;&lt;span style=&quot;font-size:12.0pt;line-height:&lt;br/&gt;115%;font-family:&amp;quot;Times New Roman&amp;quot;,serif;mso-fareast-font-family:Calibri;&lt;br/&gt;mso-ansi-language:RU;mso-fareast-language:EN-US;mso-bidi-language:AR-SA&quot;&gt;420F&lt;br&gt;&lt;/span&gt;" style="rounded=0;whiteSpace=wrap;html=1;" vertex="1" parent="1">
          <mxGeometry x="950" y="820" width="120" height="60" as="geometry" />
        </mxCell>
        <mxCell id="vH0KbwVFjzK0gVxRwM7X-200" value="" style="endArrow=classic;html=1;rounded=0;exitX=0;exitY=0.25;exitDx=0;exitDy=0;" edge="1" parent="1" source="vH0KbwVFjzK0gVxRwM7X-198">
          <mxGeometry width="50" height="50" relative="1" as="geometry">
            <mxPoint x="900" y="930" as="sourcePoint" />
            <mxPoint x="550" y="835" as="targetPoint" />
          </mxGeometry>
        </mxCell>
        <mxCell id="vH0KbwVFjzK0gVxRwM7X-201" value="" style="endArrow=classic;html=1;rounded=0;exitX=0;exitY=0.75;exitDx=0;exitDy=0;" edge="1" parent="1" source="vH0KbwVFjzK0gVxRwM7X-198">
          <mxGeometry width="50" height="50" relative="1" as="geometry">
            <mxPoint x="900" y="930" as="sourcePoint" />
            <mxPoint x="550" y="865" as="targetPoint" />
          </mxGeometry>
        </mxCell>
        <mxCell id="vH0KbwVFjzK0gVxRwM7X-202" value="" style="endArrow=classic;html=1;rounded=0;exitX=1;exitY=0.25;exitDx=0;exitDy=0;" edge="1" parent="1" source="vH0KbwVFjzK0gVxRwM7X-199">
          <mxGeometry width="50" height="50" relative="1" as="geometry">
            <mxPoint x="900" y="930" as="sourcePoint" />
            <mxPoint x="1150" y="835" as="targetPoint" />
          </mxGeometry>
        </mxCell>
        <mxCell id="vH0KbwVFjzK0gVxRwM7X-203" value="" style="endArrow=classic;startArrow=none;html=1;rounded=0;exitX=1;exitY=0.75;exitDx=0;exitDy=0;startFill=0;" edge="1" parent="1" source="vH0KbwVFjzK0gVxRwM7X-199">
          <mxGeometry width="50" height="50" relative="1" as="geometry">
            <mxPoint x="900" y="930" as="sourcePoint" />
            <mxPoint x="1150" y="865" as="targetPoint" />
          </mxGeometry>
        </mxCell>
        <mxCell id="vH0KbwVFjzK0gVxRwM7X-204" value="" style="endArrow=classic;html=1;rounded=0;exitX=0.5;exitY=1;exitDx=0;exitDy=0;" edge="1" parent="1" source="vH0KbwVFjzK0gVxRwM7X-199">
          <mxGeometry width="50" height="50" relative="1" as="geometry">
            <mxPoint x="900" y="930" as="sourcePoint" />
            <mxPoint x="1010" y="930" as="targetPoint" />
          </mxGeometry>
        </mxCell>
        <mxCell id="vH0KbwVFjzK0gVxRwM7X-205" value="" style="endArrow=classic;html=1;rounded=0;exitX=0.5;exitY=1;exitDx=0;exitDy=0;" edge="1" parent="1" source="vH0KbwVFjzK0gVxRwM7X-198">
          <mxGeometry width="50" height="50" relative="1" as="geometry">
            <mxPoint x="810" y="890" as="sourcePoint" />
            <mxPoint x="690" y="930" as="targetPoint" />
          </mxGeometry>
        </mxCell>
        <mxCell id="vH0KbwVFjzK0gVxRwM7X-206" value="&lt;span style=&quot;font-size:12.0pt;line-height:&lt;br/&gt;115%;font-family:&amp;quot;Times New Roman&amp;quot;,serif;mso-fareast-font-family:Calibri;&lt;br/&gt;mso-ansi-language:EN-US;mso-fareast-language:EN-US;mso-bidi-language:AR-SA&quot; lang=&quot;EN-US&quot;&gt;TAH&lt;/span&gt;&lt;span style=&quot;font-size:12.0pt;line-height:115%;font-family:&amp;quot;Times New Roman&amp;quot;,serif;&lt;br/&gt;mso-fareast-font-family:Calibri;mso-ansi-language:RU;mso-fareast-language:EN-US;&lt;br/&gt;mso-bidi-language:AR-SA&quot; lang=&quot;EN-US&quot;&gt; &lt;/span&gt;&lt;span style=&quot;font-size:12.0pt;line-height:&lt;br/&gt;115%;font-family:&amp;quot;Times New Roman&amp;quot;,serif;mso-fareast-font-family:Calibri;&lt;br/&gt;mso-ansi-language:RU;mso-fareast-language:EN-US;mso-bidi-language:AR-SA&quot;&gt;420F&lt;br&gt;&lt;/span&gt;" style="rounded=0;whiteSpace=wrap;html=1;" vertex="1" parent="1">
          <mxGeometry x="630" y="930" width="120" height="60" as="geometry" />
        </mxCell>
        <mxCell id="vH0KbwVFjzK0gVxRwM7X-207" value="&lt;span style=&quot;font-size:12.0pt;line-height:&lt;br/&gt;115%;font-family:&amp;quot;Times New Roman&amp;quot;,serif;mso-fareast-font-family:Calibri;&lt;br/&gt;mso-ansi-language:EN-US;mso-fareast-language:EN-US;mso-bidi-language:AR-SA&quot; lang=&quot;EN-US&quot;&gt;TAH&lt;/span&gt;&lt;span style=&quot;font-size:12.0pt;line-height:115%;font-family:&amp;quot;Times New Roman&amp;quot;,serif;&lt;br/&gt;mso-fareast-font-family:Calibri;mso-ansi-language:RU;mso-fareast-language:EN-US;&lt;br/&gt;mso-bidi-language:AR-SA&quot; lang=&quot;EN-US&quot;&gt; &lt;/span&gt;&lt;span style=&quot;font-size:12.0pt;line-height:&lt;br/&gt;115%;font-family:&amp;quot;Times New Roman&amp;quot;,serif;mso-fareast-font-family:Calibri;&lt;br/&gt;mso-ansi-language:RU;mso-fareast-language:EN-US;mso-bidi-language:AR-SA&quot;&gt;420F&lt;br&gt;&lt;/span&gt;" style="rounded=0;whiteSpace=wrap;html=1;" vertex="1" parent="1">
          <mxGeometry x="950" y="930" width="120" height="60" as="geometry" />
        </mxCell>
        <mxCell id="vH0KbwVFjzK0gVxRwM7X-208" value="" style="endArrow=classic;html=1;rounded=0;exitX=0;exitY=0.25;exitDx=0;exitDy=0;" edge="1" parent="1" source="vH0KbwVFjzK0gVxRwM7X-206">
          <mxGeometry width="50" height="50" relative="1" as="geometry">
            <mxPoint x="900" y="1040" as="sourcePoint" />
            <mxPoint x="550" y="945" as="targetPoint" />
          </mxGeometry>
        </mxCell>
        <mxCell id="vH0KbwVFjzK0gVxRwM7X-209" value="" style="endArrow=classic;html=1;rounded=0;exitX=0;exitY=0.75;exitDx=0;exitDy=0;" edge="1" parent="1">
          <mxGeometry width="50" height="50" relative="1" as="geometry">
            <mxPoint x="630" y="977" as="sourcePoint" />
            <mxPoint x="550" y="977" as="targetPoint" />
          </mxGeometry>
        </mxCell>
        <mxCell id="vH0KbwVFjzK0gVxRwM7X-210" value="" style="endArrow=classic;html=1;rounded=0;exitX=1;exitY=0.25;exitDx=0;exitDy=0;" edge="1" parent="1" source="vH0KbwVFjzK0gVxRwM7X-207">
          <mxGeometry width="50" height="50" relative="1" as="geometry">
            <mxPoint x="900" y="1040" as="sourcePoint" />
            <mxPoint x="1150" y="945" as="targetPoint" />
          </mxGeometry>
        </mxCell>
        <mxCell id="vH0KbwVFjzK0gVxRwM7X-211" value="" style="endArrow=classic;startArrow=none;html=1;rounded=0;exitX=1;exitY=0.75;exitDx=0;exitDy=0;startFill=0;" edge="1" parent="1" source="vH0KbwVFjzK0gVxRwM7X-207">
          <mxGeometry width="50" height="50" relative="1" as="geometry">
            <mxPoint x="900" y="1040" as="sourcePoint" />
            <mxPoint x="1150" y="975" as="targetPoint" />
          </mxGeometry>
        </mxCell>
        <mxCell id="vH0KbwVFjzK0gVxRwM7X-212" value="" style="endArrow=classic;html=1;rounded=0;exitX=0.5;exitY=1;exitDx=0;exitDy=0;" edge="1" parent="1" source="vH0KbwVFjzK0gVxRwM7X-207">
          <mxGeometry width="50" height="50" relative="1" as="geometry">
            <mxPoint x="900" y="1040" as="sourcePoint" />
            <mxPoint x="1010" y="1040" as="targetPoint" />
          </mxGeometry>
        </mxCell>
        <mxCell id="vH0KbwVFjzK0gVxRwM7X-213" value="" style="endArrow=classic;html=1;rounded=0;exitX=0.5;exitY=1;exitDx=0;exitDy=0;" edge="1" parent="1" source="vH0KbwVFjzK0gVxRwM7X-206">
          <mxGeometry width="50" height="50" relative="1" as="geometry">
            <mxPoint x="810" y="1000" as="sourcePoint" />
            <mxPoint x="690" y="1040" as="targetPoint" />
          </mxGeometry>
        </mxCell>
        <mxCell id="vH0KbwVFjzK0gVxRwM7X-214" value="&lt;span style=&quot;font-size:12.0pt;line-height:&lt;br/&gt;115%;font-family:&amp;quot;Times New Roman&amp;quot;,serif;mso-fareast-font-family:Calibri;&lt;br/&gt;mso-ansi-language:EN-US;mso-fareast-language:EN-US;mso-bidi-language:AR-SA&quot; lang=&quot;EN-US&quot;&gt;TAH&lt;/span&gt;&lt;span style=&quot;font-size:12.0pt;line-height:115%;font-family:&amp;quot;Times New Roman&amp;quot;,serif;&lt;br/&gt;mso-fareast-font-family:Calibri;mso-ansi-language:RU;mso-fareast-language:EN-US;&lt;br/&gt;mso-bidi-language:AR-SA&quot; lang=&quot;EN-US&quot;&gt; &lt;/span&gt;&lt;span style=&quot;font-size:12.0pt;line-height:&lt;br/&gt;115%;font-family:&amp;quot;Times New Roman&amp;quot;,serif;mso-fareast-font-family:Calibri;&lt;br/&gt;mso-ansi-language:RU;mso-fareast-language:EN-US;mso-bidi-language:AR-SA&quot;&gt;420F&lt;br&gt;&lt;/span&gt;" style="rounded=0;whiteSpace=wrap;html=1;" vertex="1" parent="1">
          <mxGeometry x="630" y="1040" width="120" height="60" as="geometry" />
        </mxCell>
        <mxCell id="vH0KbwVFjzK0gVxRwM7X-215" value="&lt;span style=&quot;font-size:12.0pt;line-height:&lt;br/&gt;115%;font-family:&amp;quot;Times New Roman&amp;quot;,serif;mso-fareast-font-family:Calibri;&lt;br/&gt;mso-ansi-language:EN-US;mso-fareast-language:EN-US;mso-bidi-language:AR-SA&quot; lang=&quot;EN-US&quot;&gt;TAH&lt;/span&gt;&lt;span style=&quot;font-size:12.0pt;line-height:115%;font-family:&amp;quot;Times New Roman&amp;quot;,serif;&lt;br/&gt;mso-fareast-font-family:Calibri;mso-ansi-language:RU;mso-fareast-language:EN-US;&lt;br/&gt;mso-bidi-language:AR-SA&quot; lang=&quot;EN-US&quot;&gt; &lt;/span&gt;&lt;span style=&quot;font-size:12.0pt;line-height:&lt;br/&gt;115%;font-family:&amp;quot;Times New Roman&amp;quot;,serif;mso-fareast-font-family:Calibri;&lt;br/&gt;mso-ansi-language:RU;mso-fareast-language:EN-US;mso-bidi-language:AR-SA&quot;&gt;420F&lt;br&gt;&lt;/span&gt;" style="rounded=0;whiteSpace=wrap;html=1;" vertex="1" parent="1">
          <mxGeometry x="950" y="1040" width="120" height="60" as="geometry" />
        </mxCell>
        <mxCell id="vH0KbwVFjzK0gVxRwM7X-216" value="" style="endArrow=classic;html=1;rounded=0;exitX=0;exitY=0.25;exitDx=0;exitDy=0;" edge="1" parent="1" source="vH0KbwVFjzK0gVxRwM7X-214">
          <mxGeometry width="50" height="50" relative="1" as="geometry">
            <mxPoint x="900" y="1150" as="sourcePoint" />
            <mxPoint x="550" y="1055" as="targetPoint" />
          </mxGeometry>
        </mxCell>
        <mxCell id="vH0KbwVFjzK0gVxRwM7X-217" value="" style="endArrow=classic;html=1;rounded=0;exitX=0;exitY=0.75;exitDx=0;exitDy=0;" edge="1" parent="1" source="vH0KbwVFjzK0gVxRwM7X-214">
          <mxGeometry width="50" height="50" relative="1" as="geometry">
            <mxPoint x="900" y="1150" as="sourcePoint" />
            <mxPoint x="550" y="1085" as="targetPoint" />
          </mxGeometry>
        </mxCell>
        <mxCell id="vH0KbwVFjzK0gVxRwM7X-218" value="" style="endArrow=classic;html=1;rounded=0;exitX=1;exitY=0.25;exitDx=0;exitDy=0;" edge="1" parent="1" source="vH0KbwVFjzK0gVxRwM7X-215">
          <mxGeometry width="50" height="50" relative="1" as="geometry">
            <mxPoint x="900" y="1150" as="sourcePoint" />
            <mxPoint x="1150" y="1055" as="targetPoint" />
          </mxGeometry>
        </mxCell>
        <mxCell id="vH0KbwVFjzK0gVxRwM7X-219" value="" style="endArrow=classic;startArrow=none;html=1;rounded=0;exitX=1;exitY=0.75;exitDx=0;exitDy=0;startFill=0;" edge="1" parent="1" source="vH0KbwVFjzK0gVxRwM7X-215">
          <mxGeometry width="50" height="50" relative="1" as="geometry">
            <mxPoint x="900" y="1150" as="sourcePoint" />
            <mxPoint x="1150" y="1085" as="targetPoint" />
          </mxGeometry>
        </mxCell>
        <mxCell id="vH0KbwVFjzK0gVxRwM7X-222" value="" style="endArrow=classic;html=1;rounded=0;exitX=0.5;exitY=1;exitDx=0;exitDy=0;entryX=0.5;entryY=0;entryDx=0;entryDy=0;" edge="1" parent="1" source="vH0KbwVFjzK0gVxRwM7X-197" target="vH0KbwVFjzK0gVxRwM7X-199">
          <mxGeometry width="50" height="50" relative="1" as="geometry">
            <mxPoint x="870" y="770" as="sourcePoint" />
            <mxPoint x="920" y="720" as="targetPoint" />
          </mxGeometry>
        </mxCell>
        <mxCell id="vH0KbwVFjzK0gVxRwM7X-223" value="" style="endArrow=classic;html=1;rounded=0;exitX=0.5;exitY=1;exitDx=0;exitDy=0;entryX=0.5;entryY=0;entryDx=0;entryDy=0;" edge="1" parent="1" source="vH0KbwVFjzK0gVxRwM7X-196" target="vH0KbwVFjzK0gVxRwM7X-198">
          <mxGeometry width="50" height="50" relative="1" as="geometry">
            <mxPoint x="870" y="770" as="sourcePoint" />
            <mxPoint x="920" y="720" as="targetPoint" />
          </mxGeometry>
        </mxCell>
        <mxCell id="vH0KbwVFjzK0gVxRwM7X-224" value="&lt;b&gt;87.14&lt;/b&gt;" style="text;html=1;align=center;verticalAlign=middle;resizable=0;points=[];autosize=1;strokeColor=none;fillColor=none;" vertex="1" parent="1">
          <mxGeometry x="565" y="368" width="50" height="30" as="geometry" />
        </mxCell>
        <mxCell id="vH0KbwVFjzK0gVxRwM7X-225" value="&lt;b&gt;84.64&lt;/b&gt;" style="text;html=1;align=center;verticalAlign=middle;resizable=0;points=[];autosize=1;strokeColor=none;fillColor=none;" vertex="1" parent="1">
          <mxGeometry x="565" y="480" width="50" height="30" as="geometry" />
        </mxCell>
        <mxCell id="vH0KbwVFjzK0gVxRwM7X-226" value="&lt;b&gt;82.14&lt;/b&gt;" style="text;html=1;align=center;verticalAlign=middle;resizable=0;points=[];autosize=1;strokeColor=none;fillColor=none;" vertex="1" parent="1">
          <mxGeometry x="565" y="590" width="50" height="30" as="geometry" />
        </mxCell>
        <mxCell id="vH0KbwVFjzK0gVxRwM7X-227" value="&lt;b&gt;109.64&lt;/b&gt;" style="text;html=1;align=center;verticalAlign=middle;resizable=0;points=[];autosize=1;strokeColor=none;fillColor=none;" vertex="1" parent="1">
          <mxGeometry x="560" y="810" width="60" height="30" as="geometry" />
        </mxCell>
        <mxCell id="vH0KbwVFjzK0gVxRwM7X-228" value="&lt;b&gt;107.14&lt;/b&gt;" style="text;html=1;align=center;verticalAlign=middle;resizable=0;points=[];autosize=1;strokeColor=none;fillColor=none;" vertex="1" parent="1">
          <mxGeometry x="560" y="920" width="60" height="30" as="geometry" />
        </mxCell>
        <mxCell id="vH0KbwVFjzK0gVxRwM7X-229" value="&lt;b&gt;104.64&lt;/b&gt;" style="text;html=1;align=center;verticalAlign=middle;resizable=0;points=[];autosize=1;strokeColor=none;fillColor=none;" vertex="1" parent="1">
          <mxGeometry x="560" y="1030" width="60" height="30" as="geometry" />
        </mxCell>
        <mxCell id="vH0KbwVFjzK0gVxRwM7X-231" value="" style="endArrow=classic;html=1;rounded=0;exitX=0.5;exitY=1;exitDx=0;exitDy=0;" edge="1" parent="1" source="vH0KbwVFjzK0gVxRwM7X-7" target="vH0KbwVFjzK0gVxRwM7X-14">
          <mxGeometry width="50" height="50" relative="1" as="geometry">
            <mxPoint x="450" y="380" as="sourcePoint" />
            <mxPoint x="500" y="330" as="targetPoint" />
          </mxGeometry>
        </mxCell>
        <mxCell id="vH0KbwVFjzK0gVxRwM7X-232" value="63.91" style="text;html=1;align=center;verticalAlign=middle;resizable=0;points=[];autosize=1;strokeColor=none;fillColor=none;" vertex="1" parent="1">
          <mxGeometry x="135" y="400" width="50" height="30" as="geometry" />
        </mxCell>
        <mxCell id="vH0KbwVFjzK0gVxRwM7X-233" value="61.81" style="text;html=1;align=center;verticalAlign=middle;resizable=0;points=[];autosize=1;strokeColor=none;fillColor=none;" vertex="1" parent="1">
          <mxGeometry x="135" y="510" width="50" height="30" as="geometry" />
        </mxCell>
        <mxCell id="vH0KbwVFjzK0gVxRwM7X-234" value="89.71" style="text;html=1;align=center;verticalAlign=middle;resizable=0;points=[];autosize=1;strokeColor=none;fillColor=none;" vertex="1" parent="1">
          <mxGeometry x="135" y="730" width="50" height="30" as="geometry" />
        </mxCell>
        <mxCell id="vH0KbwVFjzK0gVxRwM7X-235" value="87.61" style="text;html=1;align=center;verticalAlign=middle;resizable=0;points=[];autosize=1;strokeColor=none;fillColor=none;" vertex="1" parent="1">
          <mxGeometry x="135" y="840" width="50" height="30" as="geometry" />
        </mxCell>
        <mxCell id="vH0KbwVFjzK0gVxRwM7X-236" value="85.51" style="text;html=1;align=center;verticalAlign=middle;resizable=0;points=[];autosize=1;strokeColor=none;fillColor=none;" vertex="1" parent="1">
          <mxGeometry x="135" y="950" width="50" height="30" as="geometry" />
        </mxCell>
        <mxCell id="vH0KbwVFjzK0gVxRwM7X-237" value="64.44" style="text;html=1;align=center;verticalAlign=middle;resizable=0;points=[];autosize=1;strokeColor=none;fillColor=none;" vertex="1" parent="1">
          <mxGeometry x="565" y="400" width="50" height="30" as="geometry" />
        </mxCell>
        <mxCell id="vH0KbwVFjzK0gVxRwM7X-238" value="62.44" style="text;html=1;align=center;verticalAlign=middle;resizable=0;points=[];autosize=1;strokeColor=none;fillColor=none;" vertex="1" parent="1">
          <mxGeometry x="565" y="508" width="50" height="30" as="geometry" />
        </mxCell>
        <mxCell id="vH0KbwVFjzK0gVxRwM7X-239" value="60.44" style="text;html=1;align=center;verticalAlign=middle;resizable=0;points=[];autosize=1;strokeColor=none;fillColor=none;" vertex="1" parent="1">
          <mxGeometry x="565" y="620" width="50" height="30" as="geometry" />
        </mxCell>
        <mxCell id="vH0KbwVFjzK0gVxRwM7X-240" value="88.44" style="text;html=1;align=center;verticalAlign=middle;resizable=0;points=[];autosize=1;strokeColor=none;fillColor=none;" vertex="1" parent="1">
          <mxGeometry x="565" y="840" width="50" height="30" as="geometry" />
        </mxCell>
        <mxCell id="vH0KbwVFjzK0gVxRwM7X-241" value="86.44" style="text;html=1;align=center;verticalAlign=middle;resizable=0;points=[];autosize=1;strokeColor=none;fillColor=none;" vertex="1" parent="1">
          <mxGeometry x="565" y="950" width="50" height="30" as="geometry" />
        </mxCell>
        <mxCell id="vH0KbwVFjzK0gVxRwM7X-243" value="84.44" style="text;html=1;align=center;verticalAlign=middle;resizable=0;points=[];autosize=1;strokeColor=none;fillColor=none;" vertex="1" parent="1">
          <mxGeometry x="565" y="1058" width="50" height="30" as="geometry" />
        </mxCell>
        <mxCell id="vH0KbwVFjzK0gVxRwM7X-258" value="89.64" style="text;html=1;align=center;verticalAlign=middle;resizable=0;points=[];autosize=1;strokeColor=none;fillColor=none;fontStyle=1" vertex="1" parent="1">
          <mxGeometry x="1085" y="250" width="50" height="30" as="geometry" />
        </mxCell>
        <mxCell id="vH0KbwVFjzK0gVxRwM7X-259" value="66.44" style="text;html=1;align=center;verticalAlign=middle;resizable=0;points=[];autosize=1;strokeColor=none;fillColor=none;" vertex="1" parent="1">
          <mxGeometry x="1085" y="280" width="50" height="30" as="geometry" />
        </mxCell>
        <mxCell id="vH0KbwVFjzK0gVxRwM7X-260" value="&lt;b&gt;87.14&lt;/b&gt;" style="text;html=1;align=center;verticalAlign=middle;resizable=0;points=[];autosize=1;strokeColor=none;fillColor=none;" vertex="1" parent="1">
          <mxGeometry x="1085" y="368" width="50" height="30" as="geometry" />
        </mxCell>
        <mxCell id="vH0KbwVFjzK0gVxRwM7X-261" value="&lt;b&gt;84.64&lt;/b&gt;" style="text;html=1;align=center;verticalAlign=middle;resizable=0;points=[];autosize=1;strokeColor=none;fillColor=none;" vertex="1" parent="1">
          <mxGeometry x="1085" y="480" width="50" height="30" as="geometry" />
        </mxCell>
        <mxCell id="vH0KbwVFjzK0gVxRwM7X-262" value="&lt;b&gt;82.14&lt;/b&gt;" style="text;html=1;align=center;verticalAlign=middle;resizable=0;points=[];autosize=1;strokeColor=none;fillColor=none;" vertex="1" parent="1">
          <mxGeometry x="1085" y="590" width="50" height="30" as="geometry" />
        </mxCell>
        <mxCell id="vH0KbwVFjzK0gVxRwM7X-263" value="&lt;b&gt;109.64&lt;/b&gt;" style="text;html=1;align=center;verticalAlign=middle;resizable=0;points=[];autosize=1;strokeColor=none;fillColor=none;" vertex="1" parent="1">
          <mxGeometry x="1080" y="810" width="60" height="30" as="geometry" />
        </mxCell>
        <mxCell id="vH0KbwVFjzK0gVxRwM7X-264" value="&lt;b&gt;107.14&lt;/b&gt;" style="text;html=1;align=center;verticalAlign=middle;resizable=0;points=[];autosize=1;strokeColor=none;fillColor=none;" vertex="1" parent="1">
          <mxGeometry x="1080" y="920" width="60" height="30" as="geometry" />
        </mxCell>
        <mxCell id="vH0KbwVFjzK0gVxRwM7X-265" value="&lt;b&gt;104.64&lt;/b&gt;" style="text;html=1;align=center;verticalAlign=middle;resizable=0;points=[];autosize=1;strokeColor=none;fillColor=none;" vertex="1" parent="1">
          <mxGeometry x="1080" y="1030" width="60" height="30" as="geometry" />
        </mxCell>
        <mxCell id="vH0KbwVFjzK0gVxRwM7X-266" value="64.44" style="text;html=1;align=center;verticalAlign=middle;resizable=0;points=[];autosize=1;strokeColor=none;fillColor=none;" vertex="1" parent="1">
          <mxGeometry x="1085" y="400" width="50" height="30" as="geometry" />
        </mxCell>
        <mxCell id="vH0KbwVFjzK0gVxRwM7X-267" value="62.44" style="text;html=1;align=center;verticalAlign=middle;resizable=0;points=[];autosize=1;strokeColor=none;fillColor=none;" vertex="1" parent="1">
          <mxGeometry x="1085" y="508" width="50" height="30" as="geometry" />
        </mxCell>
        <mxCell id="vH0KbwVFjzK0gVxRwM7X-268" value="60.44" style="text;html=1;align=center;verticalAlign=middle;resizable=0;points=[];autosize=1;strokeColor=none;fillColor=none;" vertex="1" parent="1">
          <mxGeometry x="1085" y="620" width="50" height="30" as="geometry" />
        </mxCell>
        <mxCell id="vH0KbwVFjzK0gVxRwM7X-269" value="88.44" style="text;html=1;align=center;verticalAlign=middle;resizable=0;points=[];autosize=1;strokeColor=none;fillColor=none;" vertex="1" parent="1">
          <mxGeometry x="1085" y="840" width="50" height="30" as="geometry" />
        </mxCell>
        <mxCell id="vH0KbwVFjzK0gVxRwM7X-270" value="86.44" style="text;html=1;align=center;verticalAlign=middle;resizable=0;points=[];autosize=1;strokeColor=none;fillColor=none;" vertex="1" parent="1">
          <mxGeometry x="1085" y="950" width="50" height="30" as="geometry" />
        </mxCell>
        <mxCell id="vH0KbwVFjzK0gVxRwM7X-271" value="84.44" style="text;html=1;align=center;verticalAlign=middle;resizable=0;points=[];autosize=1;strokeColor=none;fillColor=none;" vertex="1" parent="1">
          <mxGeometry x="1085" y="1058" width="50" height="30" as="geometry" />
        </mxCell>
        <mxCell id="vH0KbwVFjzK0gVxRwM7X-272" value="" style="edgeStyle=orthogonalEdgeStyle;rounded=0;orthogonalLoop=1;jettySize=auto;html=1;" edge="1" parent="1" source="vH0KbwVFjzK0gVxRwM7X-275" target="vH0KbwVFjzK0gVxRwM7X-278">
          <mxGeometry relative="1" as="geometry" />
        </mxCell>
        <mxCell id="vH0KbwVFjzK0gVxRwM7X-273" style="edgeStyle=orthogonalEdgeStyle;rounded=0;orthogonalLoop=1;jettySize=auto;html=1;exitX=0.5;exitY=1;exitDx=0;exitDy=0;entryX=0.5;entryY=0;entryDx=0;entryDy=0;" edge="1" parent="1" source="vH0KbwVFjzK0gVxRwM7X-275" target="vH0KbwVFjzK0gVxRwM7X-278">
          <mxGeometry relative="1" as="geometry" />
        </mxCell>
        <mxCell id="vH0KbwVFjzK0gVxRwM7X-274" style="edgeStyle=orthogonalEdgeStyle;rounded=0;orthogonalLoop=1;jettySize=auto;html=1;exitX=0.5;exitY=1;exitDx=0;exitDy=0;entryX=0.5;entryY=0;entryDx=0;entryDy=0;strokeColor=light-dark(#000000,#000000);" edge="1" parent="1" source="vH0KbwVFjzK0gVxRwM7X-275" target="vH0KbwVFjzK0gVxRwM7X-278">
          <mxGeometry relative="1" as="geometry" />
        </mxCell>
        <mxCell id="vH0KbwVFjzK0gVxRwM7X-275" value="ГС" style="rounded=0;whiteSpace=wrap;html=1;" vertex="1" parent="1">
          <mxGeometry x="1780" y="90" width="120" height="60" as="geometry" />
        </mxCell>
        <mxCell id="vH0KbwVFjzK0gVxRwM7X-278" value="SAH 408F" style="rounded=0;whiteSpace=wrap;html=1;" vertex="1" parent="1">
          <mxGeometry x="1780" y="190" width="120" height="60" as="geometry" />
        </mxCell>
        <mxCell id="vH0KbwVFjzK0gVxRwM7X-286" value="94-120 Дб" style="text;html=1;align=center;verticalAlign=middle;resizable=0;points=[];autosize=1;strokeColor=none;fillColor=none;textShadow=0;fontStyle=0;fontSize=16;" vertex="1" parent="1">
          <mxGeometry x="1750" y="160" width="100" height="30" as="geometry" />
        </mxCell>
        <mxCell id="vH0KbwVFjzK0gVxRwM7X-297" value="30&lt;span style=&quot;background-color: transparent; color: light-dark(rgb(0, 0, 0), rgb(255, 255, 255));&quot;&gt;&amp;nbsp;м&lt;/span&gt;" style="text;html=1;align=center;verticalAlign=middle;resizable=0;points=[];autosize=1;strokeColor=none;fillColor=none;fontSize=16;" vertex="1" parent="1">
          <mxGeometry x="1835" y="250" width="60" height="30" as="geometry" />
        </mxCell>
        <mxCell id="vH0KbwVFjzK0gVxRwM7X-370" value="SAH 611F" style="rounded=0;whiteSpace=wrap;html=1;" vertex="1" parent="1">
          <mxGeometry x="1780" y="290" width="120" height="120" as="geometry" />
        </mxCell>
        <mxCell id="vH0KbwVFjzK0gVxRwM7X-371" value="" style="endArrow=classic;html=1;rounded=0;entryX=0.5;entryY=0;entryDx=0;entryDy=0;exitX=0.5;exitY=1;exitDx=0;exitDy=0;" edge="1" parent="1" source="vH0KbwVFjzK0gVxRwM7X-278" target="vH0KbwVFjzK0gVxRwM7X-370">
          <mxGeometry width="50" height="50" relative="1" as="geometry">
            <mxPoint x="1640" y="280" as="sourcePoint" />
            <mxPoint x="1690" y="230" as="targetPoint" />
          </mxGeometry>
        </mxCell>
        <mxCell id="vH0KbwVFjzK0gVxRwM7X-374" value="" style="endArrow=classic;html=1;rounded=0;" edge="1" parent="1">
          <mxGeometry width="50" height="50" relative="1" as="geometry">
            <mxPoint x="1840" y="410" as="sourcePoint" />
            <mxPoint x="1840" y="430" as="targetPoint" />
          </mxGeometry>
        </mxCell>
        <mxCell id="vH0KbwVFjzK0gVxRwM7X-375" value="&lt;font face=&quot;Times New Roman, serif&quot;&gt;&lt;span style=&quot;font-size: 16px;&quot;&gt;TAH 812F&lt;/span&gt;&lt;/font&gt;" style="rounded=0;whiteSpace=wrap;html=1;" vertex="1" parent="1">
          <mxGeometry x="1780" y="430" width="120" height="60" as="geometry" />
        </mxCell>
        <mxCell id="vH0KbwVFjzK0gVxRwM7X-376" value="" style="endArrow=classic;html=1;rounded=0;exitX=1;exitY=0.25;exitDx=0;exitDy=0;" edge="1" parent="1" source="vH0KbwVFjzK0gVxRwM7X-375">
          <mxGeometry width="50" height="50" relative="1" as="geometry">
            <mxPoint x="1730" y="550" as="sourcePoint" />
            <mxPoint x="1980" y="445" as="targetPoint" />
          </mxGeometry>
        </mxCell>
        <mxCell id="vH0KbwVFjzK0gVxRwM7X-377" value="" style="endArrow=classic;startArrow=none;html=1;rounded=0;exitX=1;exitY=0.75;exitDx=0;exitDy=0;startFill=0;" edge="1" parent="1" source="vH0KbwVFjzK0gVxRwM7X-375">
          <mxGeometry width="50" height="50" relative="1" as="geometry">
            <mxPoint x="1730" y="550" as="sourcePoint" />
            <mxPoint x="1980" y="475" as="targetPoint" />
          </mxGeometry>
        </mxCell>
        <mxCell id="vH0KbwVFjzK0gVxRwM7X-378" value="&lt;b&gt;91.54&lt;/b&gt;&lt;br&gt;&lt;div&gt;72.97&lt;/div&gt;" style="text;html=1;align=center;verticalAlign=middle;resizable=0;points=[];autosize=1;strokeColor=none;fillColor=none;fontSize=16;" vertex="1" parent="1">
          <mxGeometry x="1770" y="495" width="60" height="50" as="geometry" />
        </mxCell>
        <mxCell id="vH0KbwVFjzK0gVxRwM7X-379" value="84.34" style="text;html=1;align=center;verticalAlign=middle;resizable=0;points=[];autosize=1;strokeColor=none;fillColor=none;fontStyle=1;rotation=0;fontSize=16;" vertex="1" parent="1">
          <mxGeometry x="1910" y="420" width="60" height="30" as="geometry" />
        </mxCell>
        <mxCell id="vH0KbwVFjzK0gVxRwM7X-380" value="64.47" style="text;html=1;align=center;verticalAlign=middle;resizable=0;points=[];autosize=1;strokeColor=none;fillColor=none;fontSize=16;" vertex="1" parent="1">
          <mxGeometry x="1910" y="450" width="60" height="30" as="geometry" />
        </mxCell>
        <mxCell id="vH0KbwVFjzK0gVxRwM7X-382" value="" style="endArrow=classic;html=1;rounded=0;exitX=0.5;exitY=1;exitDx=0;exitDy=0;" edge="1" parent="1" source="vH0KbwVFjzK0gVxRwM7X-375">
          <mxGeometry width="50" height="50" relative="1" as="geometry">
            <mxPoint x="1790" y="530" as="sourcePoint" />
            <mxPoint x="1840" y="550" as="targetPoint" />
          </mxGeometry>
        </mxCell>
        <mxCell id="vH0KbwVFjzK0gVxRwM7X-417" value="&lt;font face=&quot;Times New Roman, serif&quot;&gt;&lt;span style=&quot;font-size: 16px;&quot;&gt;TAH 812F&lt;/span&gt;&lt;/font&gt;" style="rounded=0;whiteSpace=wrap;html=1;" vertex="1" parent="1">
          <mxGeometry x="1780" y="550" width="120" height="60" as="geometry" />
        </mxCell>
        <mxCell id="vH0KbwVFjzK0gVxRwM7X-418" value="" style="endArrow=classic;html=1;rounded=0;exitX=1;exitY=0.25;exitDx=0;exitDy=0;" edge="1" parent="1" source="vH0KbwVFjzK0gVxRwM7X-417">
          <mxGeometry width="50" height="50" relative="1" as="geometry">
            <mxPoint x="1730" y="670" as="sourcePoint" />
            <mxPoint x="1980" y="565" as="targetPoint" />
          </mxGeometry>
        </mxCell>
        <mxCell id="vH0KbwVFjzK0gVxRwM7X-419" value="" style="endArrow=classic;startArrow=none;html=1;rounded=0;exitX=1;exitY=0.75;exitDx=0;exitDy=0;startFill=0;" edge="1" parent="1" source="vH0KbwVFjzK0gVxRwM7X-417">
          <mxGeometry width="50" height="50" relative="1" as="geometry">
            <mxPoint x="1730" y="670" as="sourcePoint" />
            <mxPoint x="1980" y="595" as="targetPoint" />
          </mxGeometry>
        </mxCell>
        <mxCell id="vH0KbwVFjzK0gVxRwM7X-420" value="79.54" style="text;html=1;align=center;verticalAlign=middle;resizable=0;points=[];autosize=1;strokeColor=none;fillColor=none;fontStyle=1;fontSize=16;" vertex="1" parent="1">
          <mxGeometry x="1910" y="540" width="60" height="30" as="geometry" />
        </mxCell>
        <mxCell id="vH0KbwVFjzK0gVxRwM7X-421" value="60.97" style="text;html=1;align=center;verticalAlign=middle;resizable=0;points=[];autosize=1;strokeColor=none;fillColor=none;fontSize=16;" vertex="1" parent="1">
          <mxGeometry x="1910" y="570" width="60" height="30" as="geometry" />
        </mxCell>
        <mxCell id="vH0KbwVFjzK0gVxRwM7X-422" value="" style="endArrow=classic;html=1;rounded=0;exitX=0.5;exitY=1;exitDx=0;exitDy=0;" edge="1" parent="1" source="vH0KbwVFjzK0gVxRwM7X-417">
          <mxGeometry width="50" height="50" relative="1" as="geometry">
            <mxPoint x="1790" y="650" as="sourcePoint" />
            <mxPoint x="1840" y="670" as="targetPoint" />
          </mxGeometry>
        </mxCell>
        <mxCell id="vH0KbwVFjzK0gVxRwM7X-423" value="&lt;font face=&quot;Times New Roman, serif&quot;&gt;&lt;span style=&quot;font-size: 16px;&quot;&gt;TAH 812F&lt;/span&gt;&lt;/font&gt;" style="rounded=0;whiteSpace=wrap;html=1;" vertex="1" parent="1">
          <mxGeometry x="1780" y="780" width="120" height="60" as="geometry" />
        </mxCell>
        <mxCell id="vH0KbwVFjzK0gVxRwM7X-424" value="" style="endArrow=classic;html=1;rounded=0;exitX=1;exitY=0.25;exitDx=0;exitDy=0;" edge="1" parent="1" source="vH0KbwVFjzK0gVxRwM7X-423">
          <mxGeometry width="50" height="50" relative="1" as="geometry">
            <mxPoint x="1730" y="900" as="sourcePoint" />
            <mxPoint x="1980" y="795" as="targetPoint" />
          </mxGeometry>
        </mxCell>
        <mxCell id="vH0KbwVFjzK0gVxRwM7X-425" value="" style="endArrow=classic;startArrow=none;html=1;rounded=0;exitX=1;exitY=0.75;exitDx=0;exitDy=0;startFill=0;" edge="1" parent="1" source="vH0KbwVFjzK0gVxRwM7X-423">
          <mxGeometry width="50" height="50" relative="1" as="geometry">
            <mxPoint x="1730" y="900" as="sourcePoint" />
            <mxPoint x="1980" y="825" as="targetPoint" />
          </mxGeometry>
        </mxCell>
        <mxCell id="vH0KbwVFjzK0gVxRwM7X-426" value="104.74" style="text;html=1;align=center;verticalAlign=middle;resizable=0;points=[];autosize=1;strokeColor=none;fillColor=none;fontStyle=1;fontSize=16;" vertex="1" parent="1">
          <mxGeometry x="1905" y="770" width="70" height="30" as="geometry" />
        </mxCell>
        <mxCell id="vH0KbwVFjzK0gVxRwM7X-427" value="87.47" style="text;html=1;align=center;verticalAlign=middle;resizable=0;points=[];autosize=1;strokeColor=none;fillColor=none;fontSize=16;" vertex="1" parent="1">
          <mxGeometry x="1910" y="800" width="60" height="30" as="geometry" />
        </mxCell>
        <mxCell id="vH0KbwVFjzK0gVxRwM7X-428" value="" style="endArrow=classic;html=1;rounded=0;exitX=0.5;exitY=1;exitDx=0;exitDy=0;" edge="1" parent="1" source="vH0KbwVFjzK0gVxRwM7X-423">
          <mxGeometry width="50" height="50" relative="1" as="geometry">
            <mxPoint x="1790" y="880" as="sourcePoint" />
            <mxPoint x="1840" y="900" as="targetPoint" />
          </mxGeometry>
        </mxCell>
        <mxCell id="vH0KbwVFjzK0gVxRwM7X-429" value="&lt;font face=&quot;Times New Roman, serif&quot;&gt;&lt;span style=&quot;font-size: 16px;&quot;&gt;TAH 812F&lt;/span&gt;&lt;/font&gt;" style="rounded=0;whiteSpace=wrap;html=1;" vertex="1" parent="1">
          <mxGeometry x="1780" y="900" width="120" height="60" as="geometry" />
        </mxCell>
        <mxCell id="vH0KbwVFjzK0gVxRwM7X-430" value="" style="endArrow=classic;html=1;rounded=0;exitX=1;exitY=0.25;exitDx=0;exitDy=0;" edge="1" parent="1" source="vH0KbwVFjzK0gVxRwM7X-429">
          <mxGeometry width="50" height="50" relative="1" as="geometry">
            <mxPoint x="1730" y="1020" as="sourcePoint" />
            <mxPoint x="1980" y="915" as="targetPoint" />
          </mxGeometry>
        </mxCell>
        <mxCell id="vH0KbwVFjzK0gVxRwM7X-431" value="" style="endArrow=classic;startArrow=none;html=1;rounded=0;exitX=1;exitY=0.75;exitDx=0;exitDy=0;startFill=0;" edge="1" parent="1" source="vH0KbwVFjzK0gVxRwM7X-429">
          <mxGeometry width="50" height="50" relative="1" as="geometry">
            <mxPoint x="1730" y="1020" as="sourcePoint" />
            <mxPoint x="1980" y="945" as="targetPoint" />
          </mxGeometry>
        </mxCell>
        <mxCell id="vH0KbwVFjzK0gVxRwM7X-432" value="99.94" style="text;html=1;align=center;verticalAlign=middle;resizable=0;points=[];autosize=1;strokeColor=none;fillColor=none;fontStyle=1;fontSize=16;" vertex="1" parent="1">
          <mxGeometry x="1910" y="890" width="60" height="30" as="geometry" />
        </mxCell>
        <mxCell id="vH0KbwVFjzK0gVxRwM7X-433" value="83.97" style="text;html=1;align=center;verticalAlign=middle;resizable=0;points=[];autosize=1;strokeColor=none;fillColor=none;fontSize=16;" vertex="1" parent="1">
          <mxGeometry x="1910" y="920" width="60" height="30" as="geometry" />
        </mxCell>
        <mxCell id="vH0KbwVFjzK0gVxRwM7X-434" value="" style="endArrow=classic;html=1;rounded=0;exitX=0.5;exitY=1;exitDx=0;exitDy=0;" edge="1" parent="1" source="vH0KbwVFjzK0gVxRwM7X-429">
          <mxGeometry width="50" height="50" relative="1" as="geometry">
            <mxPoint x="1790" y="1000" as="sourcePoint" />
            <mxPoint x="1840" y="1020" as="targetPoint" />
          </mxGeometry>
        </mxCell>
        <mxCell id="vH0KbwVFjzK0gVxRwM7X-435" value="&lt;font face=&quot;Times New Roman, serif&quot;&gt;&lt;span style=&quot;font-size: 16px;&quot;&gt;TAH 812F&lt;/span&gt;&lt;/font&gt;" style="rounded=0;whiteSpace=wrap;html=1;" vertex="1" parent="1">
          <mxGeometry x="1780" y="1020" width="120" height="60" as="geometry" />
        </mxCell>
        <mxCell id="vH0KbwVFjzK0gVxRwM7X-436" value="" style="endArrow=classic;html=1;rounded=0;exitX=1;exitY=0.25;exitDx=0;exitDy=0;" edge="1" parent="1" source="vH0KbwVFjzK0gVxRwM7X-435">
          <mxGeometry width="50" height="50" relative="1" as="geometry">
            <mxPoint x="1730" y="1140" as="sourcePoint" />
            <mxPoint x="1980" y="1035" as="targetPoint" />
          </mxGeometry>
        </mxCell>
        <mxCell id="vH0KbwVFjzK0gVxRwM7X-437" value="" style="endArrow=classic;startArrow=none;html=1;rounded=0;exitX=1;exitY=0.75;exitDx=0;exitDy=0;startFill=0;" edge="1" parent="1" source="vH0KbwVFjzK0gVxRwM7X-435">
          <mxGeometry width="50" height="50" relative="1" as="geometry">
            <mxPoint x="1730" y="1140" as="sourcePoint" />
            <mxPoint x="1980" y="1065" as="targetPoint" />
          </mxGeometry>
        </mxCell>
        <mxCell id="vH0KbwVFjzK0gVxRwM7X-438" value="95.14" style="text;html=1;align=center;verticalAlign=middle;resizable=0;points=[];autosize=1;strokeColor=none;fillColor=none;fontStyle=1;fontSize=16;" vertex="1" parent="1">
          <mxGeometry x="1910" y="1010" width="60" height="30" as="geometry" />
        </mxCell>
        <mxCell id="vH0KbwVFjzK0gVxRwM7X-439" value="80.47" style="text;html=1;align=center;verticalAlign=middle;resizable=0;points=[];autosize=1;strokeColor=none;fillColor=none;fontSize=16;" vertex="1" parent="1">
          <mxGeometry x="1910" y="1040" width="60" height="30" as="geometry" />
        </mxCell>
        <mxCell id="vH0KbwVFjzK0gVxRwM7X-440" value="" style="endArrow=classic;html=1;rounded=0;exitX=0.5;exitY=1;exitDx=0;exitDy=0;" edge="1" parent="1" source="vH0KbwVFjzK0gVxRwM7X-435">
          <mxGeometry width="50" height="50" relative="1" as="geometry">
            <mxPoint x="1790" y="1120" as="sourcePoint" />
            <mxPoint x="1840" y="1140" as="targetPoint" />
          </mxGeometry>
        </mxCell>
        <mxCell id="vH0KbwVFjzK0gVxRwM7X-441" value="&lt;font face=&quot;Times New Roman, serif&quot;&gt;&lt;span style=&quot;font-size: 16px;&quot;&gt;TAH 812F&lt;/span&gt;&lt;/font&gt;" style="rounded=0;whiteSpace=wrap;html=1;" vertex="1" parent="1">
          <mxGeometry x="1780" y="1140" width="120" height="60" as="geometry" />
        </mxCell>
        <mxCell id="vH0KbwVFjzK0gVxRwM7X-442" value="" style="endArrow=classic;html=1;rounded=0;exitX=1;exitY=0.25;exitDx=0;exitDy=0;" edge="1" parent="1" source="vH0KbwVFjzK0gVxRwM7X-441">
          <mxGeometry width="50" height="50" relative="1" as="geometry">
            <mxPoint x="1730" y="1260" as="sourcePoint" />
            <mxPoint x="1980" y="1155" as="targetPoint" />
          </mxGeometry>
        </mxCell>
        <mxCell id="vH0KbwVFjzK0gVxRwM7X-443" value="" style="endArrow=classic;startArrow=none;html=1;rounded=0;exitX=1;exitY=0.75;exitDx=0;exitDy=0;startFill=0;" edge="1" parent="1" source="vH0KbwVFjzK0gVxRwM7X-441">
          <mxGeometry width="50" height="50" relative="1" as="geometry">
            <mxPoint x="1730" y="1260" as="sourcePoint" />
            <mxPoint x="1980" y="1185" as="targetPoint" />
          </mxGeometry>
        </mxCell>
        <mxCell id="vH0KbwVFjzK0gVxRwM7X-444" value="90.34" style="text;html=1;align=center;verticalAlign=middle;resizable=0;points=[];autosize=1;strokeColor=none;fillColor=none;fontStyle=1;fontSize=16;" vertex="1" parent="1">
          <mxGeometry x="1910" y="1130" width="60" height="30" as="geometry" />
        </mxCell>
        <mxCell id="vH0KbwVFjzK0gVxRwM7X-445" value="76.97" style="text;html=1;align=center;verticalAlign=middle;resizable=0;points=[];autosize=1;strokeColor=none;fillColor=none;fontSize=16;" vertex="1" parent="1">
          <mxGeometry x="1910" y="1160" width="60" height="30" as="geometry" />
        </mxCell>
        <mxCell id="vH0KbwVFjzK0gVxRwM7X-447" value="&lt;span style=&quot;font-size:12.0pt;line-height:115%;&lt;br/&gt;font-family:&amp;quot;Times New Roman&amp;quot;,serif;mso-fareast-font-family:Calibri;mso-ansi-language:&lt;br/&gt;RU;mso-fareast-language:EN-US;mso-bidi-language:AR-SA&quot;&gt;WA-126&lt;/span&gt;" style="rounded=0;whiteSpace=wrap;html=1;" vertex="1" parent="1">
          <mxGeometry x="1780" y="670" width="120" height="60" as="geometry" />
        </mxCell>
        <mxCell id="vH0KbwVFjzK0gVxRwM7X-448" value="" style="endArrow=classic;html=1;rounded=0;exitX=0.5;exitY=1;exitDx=0;exitDy=0;entryX=0.5;entryY=0;entryDx=0;entryDy=0;" edge="1" parent="1" source="vH0KbwVFjzK0gVxRwM7X-447">
          <mxGeometry width="50" height="50" relative="1" as="geometry">
            <mxPoint x="1700" y="730" as="sourcePoint" />
            <mxPoint x="1840" y="780" as="targetPoint" />
          </mxGeometry>
        </mxCell>
        <mxCell id="vH0KbwVFjzK0gVxRwM7X-449" value="&lt;div&gt;&lt;b&gt;102.6&lt;/b&gt;&lt;/div&gt;&lt;div&gt;81.91&lt;/div&gt;" style="text;html=1;align=center;verticalAlign=middle;resizable=0;points=[];autosize=1;strokeColor=none;fillColor=none;" vertex="1" parent="1">
          <mxGeometry x="275" y="445" width="50" height="40" as="geometry" />
        </mxCell>
        <mxCell id="vH0KbwVFjzK0gVxRwM7X-451" value="&lt;b&gt;129.73&lt;/b&gt;&lt;div&gt;109.81&lt;/div&gt;" style="text;html=1;align=center;verticalAlign=middle;resizable=0;points=[];autosize=1;strokeColor=none;fillColor=none;" vertex="1" parent="1">
          <mxGeometry x="270" y="660" width="60" height="40" as="geometry" />
        </mxCell>
        <mxCell id="vH0KbwVFjzK0gVxRwM7X-452" value="&lt;b&gt;126.87&lt;/b&gt;&lt;div&gt;107.71&lt;/div&gt;" style="text;html=1;align=center;verticalAlign=middle;resizable=0;points=[];autosize=1;strokeColor=none;fillColor=none;" vertex="1" parent="1">
          <mxGeometry x="270" y="770" width="60" height="40" as="geometry" />
        </mxCell>
        <mxCell id="vH0KbwVFjzK0gVxRwM7X-453" value="&lt;b&gt;124.01&lt;/b&gt;&lt;div&gt;105.61&lt;/div&gt;" style="text;html=1;align=center;verticalAlign=middle;resizable=0;points=[];autosize=1;strokeColor=none;fillColor=none;" vertex="1" parent="1">
          <mxGeometry x="270" y="880" width="60" height="40" as="geometry" />
        </mxCell>
        <mxCell id="vH0KbwVFjzK0gVxRwM7X-454" value="&lt;b&gt;104.64&lt;/b&gt;&lt;div&gt;82.44&lt;/div&gt;" style="text;html=1;align=center;verticalAlign=middle;resizable=0;points=[];autosize=1;strokeColor=none;fillColor=none;" vertex="1" parent="1">
          <mxGeometry x="700" y="445" width="60" height="40" as="geometry" />
        </mxCell>
        <mxCell id="vH0KbwVFjzK0gVxRwM7X-455" value="&lt;b&gt;102.14&lt;/b&gt;&lt;div&gt;80.44&lt;/div&gt;" style="text;html=1;align=center;verticalAlign=middle;resizable=0;points=[];autosize=1;strokeColor=none;fillColor=none;" vertex="1" parent="1">
          <mxGeometry x="700" y="550" width="60" height="40" as="geometry" />
        </mxCell>
        <mxCell id="vH0KbwVFjzK0gVxRwM7X-456" value="&lt;b&gt;129.64&lt;/b&gt;&lt;div&gt;108.44&lt;/div&gt;" style="text;html=1;align=center;verticalAlign=middle;resizable=0;points=[];autosize=1;strokeColor=none;fillColor=none;" vertex="1" parent="1">
          <mxGeometry x="700" y="770" width="60" height="40" as="geometry" />
        </mxCell>
        <mxCell id="vH0KbwVFjzK0gVxRwM7X-457" value="&lt;b&gt;127.14&lt;/b&gt;&lt;div&gt;106.44&lt;/div&gt;" style="text;html=1;align=center;verticalAlign=middle;resizable=0;points=[];autosize=1;strokeColor=none;fillColor=none;" vertex="1" parent="1">
          <mxGeometry x="700" y="880" width="60" height="40" as="geometry" />
        </mxCell>
        <mxCell id="vH0KbwVFjzK0gVxRwM7X-458" value="&lt;div&gt;&lt;b&gt;124.64&lt;/b&gt;&lt;/div&gt;&lt;div&gt;104.44&lt;/div&gt;" style="text;html=1;align=center;verticalAlign=middle;resizable=0;points=[];autosize=1;strokeColor=none;fillColor=none;" vertex="1" parent="1">
          <mxGeometry x="700" y="990" width="60" height="40" as="geometry" />
        </mxCell>
        <mxCell id="vH0KbwVFjzK0gVxRwM7X-459" value="&lt;b&gt;107.14&lt;/b&gt;&lt;div&gt;84.44&lt;/div&gt;" style="text;html=1;align=center;verticalAlign=middle;resizable=0;points=[];autosize=1;strokeColor=none;fillColor=none;" vertex="1" parent="1">
          <mxGeometry x="950" y="330" width="60" height="40" as="geometry" />
        </mxCell>
        <mxCell id="vH0KbwVFjzK0gVxRwM7X-460" value="&lt;b&gt;104.64&lt;/b&gt;&lt;div&gt;82.44&lt;/div&gt;" style="text;html=1;align=center;verticalAlign=middle;resizable=0;points=[];autosize=1;strokeColor=none;fillColor=none;" vertex="1" parent="1">
          <mxGeometry x="950" y="445" width="60" height="40" as="geometry" />
        </mxCell>
        <mxCell id="vH0KbwVFjzK0gVxRwM7X-461" value="&lt;b&gt;102.14&lt;/b&gt;&lt;div&gt;80.44&lt;/div&gt;" style="text;html=1;align=center;verticalAlign=middle;resizable=0;points=[];autosize=1;strokeColor=none;fillColor=none;" vertex="1" parent="1">
          <mxGeometry x="950" y="550" width="60" height="40" as="geometry" />
        </mxCell>
        <mxCell id="vH0KbwVFjzK0gVxRwM7X-462" value="&lt;b&gt;129.64&lt;/b&gt;&lt;div&gt;108.44&lt;/div&gt;" style="text;html=1;align=center;verticalAlign=middle;resizable=0;points=[];autosize=1;strokeColor=none;fillColor=none;" vertex="1" parent="1">
          <mxGeometry x="950" y="770" width="60" height="40" as="geometry" />
        </mxCell>
        <mxCell id="vH0KbwVFjzK0gVxRwM7X-463" value="&lt;b&gt;127.14&lt;/b&gt;&lt;div&gt;106.44&lt;/div&gt;" style="text;html=1;align=center;verticalAlign=middle;resizable=0;points=[];autosize=1;strokeColor=none;fillColor=none;" vertex="1" parent="1">
          <mxGeometry x="950" y="880" width="60" height="40" as="geometry" />
        </mxCell>
        <mxCell id="vH0KbwVFjzK0gVxRwM7X-464" value="&lt;div&gt;&lt;b&gt;124.64&lt;/b&gt;&lt;/div&gt;&lt;div&gt;104.44&lt;/div&gt;" style="text;html=1;align=center;verticalAlign=middle;resizable=0;points=[];autosize=1;strokeColor=none;fillColor=none;" vertex="1" parent="1">
          <mxGeometry x="950" y="990" width="60" height="40" as="geometry" />
        </mxCell>
        <mxCell id="vH0KbwVFjzK0gVxRwM7X-465" value="&lt;b&gt;116.74&lt;/b&gt;&lt;div&gt;99.47&lt;/div&gt;" style="text;html=1;align=center;verticalAlign=middle;resizable=0;points=[];autosize=1;strokeColor=none;fillColor=none;fontSize=16;" vertex="1" parent="1">
          <mxGeometry x="1765" y="725" width="70" height="50" as="geometry" />
        </mxCell>
        <mxCell id="vH0KbwVFjzK0gVxRwM7X-467" value="&lt;b&gt;111.94&lt;/b&gt;&lt;div&gt;95.97&lt;/div&gt;" style="text;html=1;align=center;verticalAlign=middle;resizable=0;points=[];autosize=1;strokeColor=none;fillColor=none;fontSize=16;" vertex="1" parent="1">
          <mxGeometry x="1765" y="845" width="70" height="50" as="geometry" />
        </mxCell>
        <mxCell id="vH0KbwVFjzK0gVxRwM7X-468" value="&lt;b&gt;107.14&lt;/b&gt;&lt;div&gt;92.47&lt;/div&gt;" style="text;html=1;align=center;verticalAlign=middle;resizable=0;points=[];autosize=1;strokeColor=none;fillColor=none;fontSize=16;" vertex="1" parent="1">
          <mxGeometry x="1765" y="965" width="70" height="50" as="geometry" />
        </mxCell>
        <mxCell id="vH0KbwVFjzK0gVxRwM7X-469" value="&lt;b&gt;102.34&lt;/b&gt;&lt;div&gt;88.97&lt;/div&gt;" style="text;html=1;align=center;verticalAlign=middle;resizable=0;points=[];autosize=1;strokeColor=none;fillColor=none;fontSize=16;" vertex="1" parent="1">
          <mxGeometry x="1765" y="1085" width="70" height="50" as="geometry" />
        </mxCell>
        <mxCell id="vH0KbwVFjzK0gVxRwM7X-471" value="" style="endArrow=classic;html=1;rounded=0;exitX=1;exitY=0.75;exitDx=0;exitDy=0;" edge="1" parent="1" source="vH0KbwVFjzK0gVxRwM7X-370">
          <mxGeometry width="50" height="50" relative="1" as="geometry">
            <mxPoint x="1850" y="350" as="sourcePoint" />
            <mxPoint x="2120" y="430" as="targetPoint" />
            <Array as="points">
              <mxPoint x="2120" y="380" />
            </Array>
          </mxGeometry>
        </mxCell>
        <mxCell id="vH0KbwVFjzK0gVxRwM7X-472" value="&lt;font face=&quot;Times New Roman, serif&quot;&gt;&lt;span style=&quot;font-size: 16px;&quot;&gt;TAH 812F&lt;/span&gt;&lt;/font&gt;" style="rounded=0;whiteSpace=wrap;html=1;" vertex="1" parent="1">
          <mxGeometry x="2060" y="430" width="120" height="60" as="geometry" />
        </mxCell>
        <mxCell id="vH0KbwVFjzK0gVxRwM7X-473" value="" style="endArrow=classic;html=1;rounded=0;exitX=1;exitY=0.25;exitDx=0;exitDy=0;" edge="1" parent="1" source="vH0KbwVFjzK0gVxRwM7X-472">
          <mxGeometry width="50" height="50" relative="1" as="geometry">
            <mxPoint x="2010" y="550" as="sourcePoint" />
            <mxPoint x="2260" y="445" as="targetPoint" />
          </mxGeometry>
        </mxCell>
        <mxCell id="vH0KbwVFjzK0gVxRwM7X-474" value="" style="endArrow=classic;startArrow=none;html=1;rounded=0;exitX=1;exitY=0.75;exitDx=0;exitDy=0;startFill=0;" edge="1" parent="1" source="vH0KbwVFjzK0gVxRwM7X-472">
          <mxGeometry width="50" height="50" relative="1" as="geometry">
            <mxPoint x="2010" y="550" as="sourcePoint" />
            <mxPoint x="2260" y="475" as="targetPoint" />
          </mxGeometry>
        </mxCell>
        <mxCell id="vH0KbwVFjzK0gVxRwM7X-477" value="" style="endArrow=classic;html=1;rounded=0;exitX=0.5;exitY=1;exitDx=0;exitDy=0;" edge="1" parent="1" source="vH0KbwVFjzK0gVxRwM7X-472">
          <mxGeometry width="50" height="50" relative="1" as="geometry">
            <mxPoint x="2070" y="530" as="sourcePoint" />
            <mxPoint x="2120" y="550" as="targetPoint" />
          </mxGeometry>
        </mxCell>
        <mxCell id="vH0KbwVFjzK0gVxRwM7X-478" value="&lt;font face=&quot;Times New Roman, serif&quot;&gt;&lt;span style=&quot;font-size: 16px;&quot;&gt;TAH 812F&lt;/span&gt;&lt;/font&gt;" style="rounded=0;whiteSpace=wrap;html=1;" vertex="1" parent="1">
          <mxGeometry x="2060" y="550" width="120" height="60" as="geometry" />
        </mxCell>
        <mxCell id="vH0KbwVFjzK0gVxRwM7X-479" value="" style="endArrow=classic;html=1;rounded=0;exitX=1;exitY=0.25;exitDx=0;exitDy=0;" edge="1" parent="1" source="vH0KbwVFjzK0gVxRwM7X-478">
          <mxGeometry width="50" height="50" relative="1" as="geometry">
            <mxPoint x="2010" y="670" as="sourcePoint" />
            <mxPoint x="2260" y="565" as="targetPoint" />
          </mxGeometry>
        </mxCell>
        <mxCell id="vH0KbwVFjzK0gVxRwM7X-480" value="" style="endArrow=classic;startArrow=none;html=1;rounded=0;exitX=1;exitY=0.75;exitDx=0;exitDy=0;startFill=0;" edge="1" parent="1" source="vH0KbwVFjzK0gVxRwM7X-478">
          <mxGeometry width="50" height="50" relative="1" as="geometry">
            <mxPoint x="2010" y="670" as="sourcePoint" />
            <mxPoint x="2260" y="595" as="targetPoint" />
          </mxGeometry>
        </mxCell>
        <mxCell id="vH0KbwVFjzK0gVxRwM7X-483" value="" style="endArrow=classic;html=1;rounded=0;exitX=0.5;exitY=1;exitDx=0;exitDy=0;" edge="1" parent="1" source="vH0KbwVFjzK0gVxRwM7X-478">
          <mxGeometry width="50" height="50" relative="1" as="geometry">
            <mxPoint x="2070" y="650" as="sourcePoint" />
            <mxPoint x="2120" y="670" as="targetPoint" />
          </mxGeometry>
        </mxCell>
        <mxCell id="vH0KbwVFjzK0gVxRwM7X-484" value="&lt;font face=&quot;Times New Roman, serif&quot;&gt;&lt;span style=&quot;font-size: 16px;&quot;&gt;TAH 812F&lt;/span&gt;&lt;/font&gt;" style="rounded=0;whiteSpace=wrap;html=1;" vertex="1" parent="1">
          <mxGeometry x="2060" y="780" width="120" height="60" as="geometry" />
        </mxCell>
        <mxCell id="vH0KbwVFjzK0gVxRwM7X-485" value="" style="endArrow=classic;html=1;rounded=0;exitX=1;exitY=0.25;exitDx=0;exitDy=0;" edge="1" parent="1" source="vH0KbwVFjzK0gVxRwM7X-484">
          <mxGeometry width="50" height="50" relative="1" as="geometry">
            <mxPoint x="2010" y="900" as="sourcePoint" />
            <mxPoint x="2260" y="795" as="targetPoint" />
          </mxGeometry>
        </mxCell>
        <mxCell id="vH0KbwVFjzK0gVxRwM7X-486" value="" style="endArrow=classic;startArrow=none;html=1;rounded=0;exitX=1;exitY=0.75;exitDx=0;exitDy=0;startFill=0;" edge="1" parent="1" source="vH0KbwVFjzK0gVxRwM7X-484">
          <mxGeometry width="50" height="50" relative="1" as="geometry">
            <mxPoint x="2010" y="900" as="sourcePoint" />
            <mxPoint x="2260" y="825" as="targetPoint" />
          </mxGeometry>
        </mxCell>
        <mxCell id="vH0KbwVFjzK0gVxRwM7X-489" value="" style="endArrow=classic;html=1;rounded=0;exitX=0.5;exitY=1;exitDx=0;exitDy=0;" edge="1" parent="1" source="vH0KbwVFjzK0gVxRwM7X-484">
          <mxGeometry width="50" height="50" relative="1" as="geometry">
            <mxPoint x="2070" y="880" as="sourcePoint" />
            <mxPoint x="2120" y="900" as="targetPoint" />
          </mxGeometry>
        </mxCell>
        <mxCell id="vH0KbwVFjzK0gVxRwM7X-490" value="&lt;font face=&quot;Times New Roman, serif&quot;&gt;&lt;span style=&quot;font-size: 16px;&quot;&gt;TAH 812F&lt;/span&gt;&lt;/font&gt;" style="rounded=0;whiteSpace=wrap;html=1;" vertex="1" parent="1">
          <mxGeometry x="2060" y="900" width="120" height="60" as="geometry" />
        </mxCell>
        <mxCell id="vH0KbwVFjzK0gVxRwM7X-491" value="" style="endArrow=classic;html=1;rounded=0;exitX=1;exitY=0.25;exitDx=0;exitDy=0;" edge="1" parent="1" source="vH0KbwVFjzK0gVxRwM7X-490">
          <mxGeometry width="50" height="50" relative="1" as="geometry">
            <mxPoint x="2010" y="1020" as="sourcePoint" />
            <mxPoint x="2260" y="915" as="targetPoint" />
          </mxGeometry>
        </mxCell>
        <mxCell id="vH0KbwVFjzK0gVxRwM7X-492" value="" style="endArrow=classic;startArrow=none;html=1;rounded=0;exitX=1;exitY=0.75;exitDx=0;exitDy=0;startFill=0;" edge="1" parent="1" source="vH0KbwVFjzK0gVxRwM7X-490">
          <mxGeometry width="50" height="50" relative="1" as="geometry">
            <mxPoint x="2010" y="1020" as="sourcePoint" />
            <mxPoint x="2260" y="945" as="targetPoint" />
          </mxGeometry>
        </mxCell>
        <mxCell id="vH0KbwVFjzK0gVxRwM7X-495" value="" style="endArrow=classic;html=1;rounded=0;exitX=0.5;exitY=1;exitDx=0;exitDy=0;" edge="1" parent="1" source="vH0KbwVFjzK0gVxRwM7X-490">
          <mxGeometry width="50" height="50" relative="1" as="geometry">
            <mxPoint x="2070" y="1000" as="sourcePoint" />
            <mxPoint x="2120" y="1020" as="targetPoint" />
          </mxGeometry>
        </mxCell>
        <mxCell id="vH0KbwVFjzK0gVxRwM7X-496" value="&lt;font face=&quot;Times New Roman, serif&quot;&gt;&lt;span style=&quot;font-size: 16px;&quot;&gt;TAH 812F&lt;/span&gt;&lt;/font&gt;" style="rounded=0;whiteSpace=wrap;html=1;" vertex="1" parent="1">
          <mxGeometry x="2060" y="1020" width="120" height="60" as="geometry" />
        </mxCell>
        <mxCell id="vH0KbwVFjzK0gVxRwM7X-497" value="" style="endArrow=classic;html=1;rounded=0;exitX=1;exitY=0.25;exitDx=0;exitDy=0;" edge="1" parent="1" source="vH0KbwVFjzK0gVxRwM7X-496">
          <mxGeometry width="50" height="50" relative="1" as="geometry">
            <mxPoint x="2010" y="1140" as="sourcePoint" />
            <mxPoint x="2260" y="1035" as="targetPoint" />
          </mxGeometry>
        </mxCell>
        <mxCell id="vH0KbwVFjzK0gVxRwM7X-498" value="" style="endArrow=classic;startArrow=none;html=1;rounded=0;exitX=1;exitY=0.75;exitDx=0;exitDy=0;startFill=0;" edge="1" parent="1" source="vH0KbwVFjzK0gVxRwM7X-496">
          <mxGeometry width="50" height="50" relative="1" as="geometry">
            <mxPoint x="2010" y="1140" as="sourcePoint" />
            <mxPoint x="2260" y="1065" as="targetPoint" />
          </mxGeometry>
        </mxCell>
        <mxCell id="vH0KbwVFjzK0gVxRwM7X-501" value="" style="endArrow=classic;html=1;rounded=0;exitX=0.5;exitY=1;exitDx=0;exitDy=0;" edge="1" parent="1" source="vH0KbwVFjzK0gVxRwM7X-496">
          <mxGeometry width="50" height="50" relative="1" as="geometry">
            <mxPoint x="2070" y="1120" as="sourcePoint" />
            <mxPoint x="2120" y="1140" as="targetPoint" />
          </mxGeometry>
        </mxCell>
        <mxCell id="vH0KbwVFjzK0gVxRwM7X-502" value="&lt;font face=&quot;Times New Roman, serif&quot;&gt;&lt;span style=&quot;font-size: 16px;&quot;&gt;TAH 812F&lt;/span&gt;&lt;/font&gt;" style="rounded=0;whiteSpace=wrap;html=1;" vertex="1" parent="1">
          <mxGeometry x="2060" y="1140" width="120" height="60" as="geometry" />
        </mxCell>
        <mxCell id="vH0KbwVFjzK0gVxRwM7X-503" value="" style="endArrow=classic;html=1;rounded=0;exitX=1;exitY=0.25;exitDx=0;exitDy=0;" edge="1" parent="1" source="vH0KbwVFjzK0gVxRwM7X-502">
          <mxGeometry width="50" height="50" relative="1" as="geometry">
            <mxPoint x="2010" y="1260" as="sourcePoint" />
            <mxPoint x="2260" y="1155" as="targetPoint" />
          </mxGeometry>
        </mxCell>
        <mxCell id="vH0KbwVFjzK0gVxRwM7X-504" value="" style="endArrow=classic;startArrow=none;html=1;rounded=0;exitX=1;exitY=0.75;exitDx=0;exitDy=0;startFill=0;" edge="1" parent="1" source="vH0KbwVFjzK0gVxRwM7X-502">
          <mxGeometry width="50" height="50" relative="1" as="geometry">
            <mxPoint x="2010" y="1260" as="sourcePoint" />
            <mxPoint x="2260" y="1185" as="targetPoint" />
          </mxGeometry>
        </mxCell>
        <mxCell id="vH0KbwVFjzK0gVxRwM7X-507" value="&lt;span style=&quot;font-size:12.0pt;line-height:115%;&lt;br/&gt;font-family:&amp;quot;Times New Roman&amp;quot;,serif;mso-fareast-font-family:Calibri;mso-ansi-language:&lt;br/&gt;RU;mso-fareast-language:EN-US;mso-bidi-language:AR-SA&quot;&gt;WA-126&lt;/span&gt;" style="rounded=0;whiteSpace=wrap;html=1;" vertex="1" parent="1">
          <mxGeometry x="2060" y="670" width="120" height="60" as="geometry" />
        </mxCell>
        <mxCell id="vH0KbwVFjzK0gVxRwM7X-508" value="" style="endArrow=classic;html=1;rounded=0;exitX=0.5;exitY=1;exitDx=0;exitDy=0;entryX=0.5;entryY=0;entryDx=0;entryDy=0;" edge="1" parent="1" source="vH0KbwVFjzK0gVxRwM7X-507">
          <mxGeometry width="50" height="50" relative="1" as="geometry">
            <mxPoint x="1980" y="730" as="sourcePoint" />
            <mxPoint x="2120" y="780" as="targetPoint" />
          </mxGeometry>
        </mxCell>
        <mxCell id="vH0KbwVFjzK0gVxRwM7X-515" value="" style="endArrow=classic;html=1;rounded=0;exitX=0;exitY=0.75;exitDx=0;exitDy=0;" edge="1" parent="1" source="vH0KbwVFjzK0gVxRwM7X-370">
          <mxGeometry width="50" height="50" relative="1" as="geometry">
            <mxPoint x="1780" y="350" as="sourcePoint" />
            <mxPoint x="1560" y="430" as="targetPoint" />
            <Array as="points">
              <mxPoint x="1560" y="380" />
            </Array>
          </mxGeometry>
        </mxCell>
        <mxCell id="vH0KbwVFjzK0gVxRwM7X-516" value="&lt;font face=&quot;Times New Roman, serif&quot;&gt;&lt;span style=&quot;font-size: 16px;&quot;&gt;TAH 812F&lt;/span&gt;&lt;/font&gt;" style="rounded=0;whiteSpace=wrap;html=1;" vertex="1" parent="1">
          <mxGeometry x="1500" y="430" width="120" height="60" as="geometry" />
        </mxCell>
        <mxCell id="vH0KbwVFjzK0gVxRwM7X-517" value="" style="endArrow=classic;html=1;rounded=0;exitX=1;exitY=0.25;exitDx=0;exitDy=0;" edge="1" parent="1" source="vH0KbwVFjzK0gVxRwM7X-516">
          <mxGeometry width="50" height="50" relative="1" as="geometry">
            <mxPoint x="1450" y="550" as="sourcePoint" />
            <mxPoint x="1700" y="445" as="targetPoint" />
          </mxGeometry>
        </mxCell>
        <mxCell id="vH0KbwVFjzK0gVxRwM7X-518" value="" style="endArrow=classic;startArrow=none;html=1;rounded=0;exitX=1;exitY=0.75;exitDx=0;exitDy=0;startFill=0;" edge="1" parent="1" source="vH0KbwVFjzK0gVxRwM7X-516">
          <mxGeometry width="50" height="50" relative="1" as="geometry">
            <mxPoint x="1450" y="550" as="sourcePoint" />
            <mxPoint x="1700" y="475" as="targetPoint" />
          </mxGeometry>
        </mxCell>
        <mxCell id="vH0KbwVFjzK0gVxRwM7X-519" value="&lt;b&gt;89.72&lt;/b&gt;&lt;br&gt;&lt;div&gt;72.48&lt;/div&gt;" style="text;html=1;align=center;verticalAlign=middle;resizable=0;points=[];autosize=1;strokeColor=none;fillColor=none;fontSize=16;" vertex="1" parent="1">
          <mxGeometry x="1490" y="495" width="60" height="50" as="geometry" />
        </mxCell>
        <mxCell id="vH0KbwVFjzK0gVxRwM7X-520" value="63.98" style="text;html=1;align=center;verticalAlign=middle;resizable=0;points=[];autosize=1;strokeColor=none;fillColor=none;fontSize=16;" vertex="1" parent="1">
          <mxGeometry x="1630" y="450" width="60" height="30" as="geometry" />
        </mxCell>
        <mxCell id="vH0KbwVFjzK0gVxRwM7X-521" value="" style="endArrow=classic;html=1;rounded=0;exitX=0.5;exitY=1;exitDx=0;exitDy=0;" edge="1" parent="1" source="vH0KbwVFjzK0gVxRwM7X-516">
          <mxGeometry width="50" height="50" relative="1" as="geometry">
            <mxPoint x="1510" y="530" as="sourcePoint" />
            <mxPoint x="1560" y="550" as="targetPoint" />
          </mxGeometry>
        </mxCell>
        <mxCell id="vH0KbwVFjzK0gVxRwM7X-522" value="&lt;font face=&quot;Times New Roman, serif&quot;&gt;&lt;span style=&quot;font-size: 16px;&quot;&gt;TAH 812F&lt;/span&gt;&lt;/font&gt;" style="rounded=0;whiteSpace=wrap;html=1;" vertex="1" parent="1">
          <mxGeometry x="1500" y="550" width="120" height="60" as="geometry" />
        </mxCell>
        <mxCell id="vH0KbwVFjzK0gVxRwM7X-523" value="" style="endArrow=classic;html=1;rounded=0;exitX=1;exitY=0.25;exitDx=0;exitDy=0;" edge="1" parent="1" source="vH0KbwVFjzK0gVxRwM7X-522">
          <mxGeometry width="50" height="50" relative="1" as="geometry">
            <mxPoint x="1450" y="670" as="sourcePoint" />
            <mxPoint x="1700" y="565" as="targetPoint" />
          </mxGeometry>
        </mxCell>
        <mxCell id="vH0KbwVFjzK0gVxRwM7X-524" value="" style="endArrow=classic;startArrow=none;html=1;rounded=0;exitX=1;exitY=0.75;exitDx=0;exitDy=0;startFill=0;" edge="1" parent="1" source="vH0KbwVFjzK0gVxRwM7X-522">
          <mxGeometry width="50" height="50" relative="1" as="geometry">
            <mxPoint x="1450" y="670" as="sourcePoint" />
            <mxPoint x="1700" y="595" as="targetPoint" />
          </mxGeometry>
        </mxCell>
        <mxCell id="vH0KbwVFjzK0gVxRwM7X-525" value="77.72" style="text;html=1;align=center;verticalAlign=middle;resizable=0;points=[];autosize=1;strokeColor=none;fillColor=none;fontStyle=1;fontSize=16;" vertex="1" parent="1">
          <mxGeometry x="1630" y="540" width="60" height="30" as="geometry" />
        </mxCell>
        <mxCell id="vH0KbwVFjzK0gVxRwM7X-526" value="60.48" style="text;html=1;align=center;verticalAlign=middle;resizable=0;points=[];autosize=1;strokeColor=none;fillColor=none;fontSize=16;" vertex="1" parent="1">
          <mxGeometry x="1630" y="570" width="60" height="30" as="geometry" />
        </mxCell>
        <mxCell id="vH0KbwVFjzK0gVxRwM7X-527" value="" style="endArrow=classic;html=1;rounded=0;exitX=0.5;exitY=1;exitDx=0;exitDy=0;" edge="1" parent="1" source="vH0KbwVFjzK0gVxRwM7X-522">
          <mxGeometry width="50" height="50" relative="1" as="geometry">
            <mxPoint x="1510" y="650" as="sourcePoint" />
            <mxPoint x="1560" y="670" as="targetPoint" />
          </mxGeometry>
        </mxCell>
        <mxCell id="vH0KbwVFjzK0gVxRwM7X-528" value="&lt;font face=&quot;Times New Roman, serif&quot;&gt;&lt;span style=&quot;font-size: 16px;&quot;&gt;TAH 812F&lt;/span&gt;&lt;/font&gt;" style="rounded=0;whiteSpace=wrap;html=1;" vertex="1" parent="1">
          <mxGeometry x="1500" y="780" width="120" height="60" as="geometry" />
        </mxCell>
        <mxCell id="vH0KbwVFjzK0gVxRwM7X-529" value="" style="endArrow=classic;html=1;rounded=0;exitX=1;exitY=0.25;exitDx=0;exitDy=0;" edge="1" parent="1" source="vH0KbwVFjzK0gVxRwM7X-528">
          <mxGeometry width="50" height="50" relative="1" as="geometry">
            <mxPoint x="1450" y="900" as="sourcePoint" />
            <mxPoint x="1700" y="795" as="targetPoint" />
          </mxGeometry>
        </mxCell>
        <mxCell id="vH0KbwVFjzK0gVxRwM7X-530" value="" style="endArrow=classic;startArrow=none;html=1;rounded=0;exitX=1;exitY=0.75;exitDx=0;exitDy=0;startFill=0;" edge="1" parent="1" source="vH0KbwVFjzK0gVxRwM7X-528">
          <mxGeometry width="50" height="50" relative="1" as="geometry">
            <mxPoint x="1450" y="900" as="sourcePoint" />
            <mxPoint x="1700" y="825" as="targetPoint" />
          </mxGeometry>
        </mxCell>
        <mxCell id="vH0KbwVFjzK0gVxRwM7X-531" value="102.92" style="text;html=1;align=center;verticalAlign=middle;resizable=0;points=[];autosize=1;strokeColor=none;fillColor=none;fontStyle=1;fontSize=16;" vertex="1" parent="1">
          <mxGeometry x="1625" y="770" width="70" height="30" as="geometry" />
        </mxCell>
        <mxCell id="vH0KbwVFjzK0gVxRwM7X-532" value="86.98" style="text;html=1;align=center;verticalAlign=middle;resizable=0;points=[];autosize=1;strokeColor=none;fillColor=none;fontSize=16;" vertex="1" parent="1">
          <mxGeometry x="1630" y="800" width="60" height="30" as="geometry" />
        </mxCell>
        <mxCell id="vH0KbwVFjzK0gVxRwM7X-533" value="" style="endArrow=classic;html=1;rounded=0;exitX=0.5;exitY=1;exitDx=0;exitDy=0;" edge="1" parent="1" source="vH0KbwVFjzK0gVxRwM7X-528">
          <mxGeometry width="50" height="50" relative="1" as="geometry">
            <mxPoint x="1510" y="880" as="sourcePoint" />
            <mxPoint x="1560" y="900" as="targetPoint" />
          </mxGeometry>
        </mxCell>
        <mxCell id="vH0KbwVFjzK0gVxRwM7X-534" value="&lt;font face=&quot;Times New Roman, serif&quot;&gt;&lt;span style=&quot;font-size: 16px;&quot;&gt;TAH 812F&lt;/span&gt;&lt;/font&gt;" style="rounded=0;whiteSpace=wrap;html=1;" vertex="1" parent="1">
          <mxGeometry x="1500" y="900" width="120" height="60" as="geometry" />
        </mxCell>
        <mxCell id="vH0KbwVFjzK0gVxRwM7X-535" value="" style="endArrow=classic;html=1;rounded=0;exitX=1;exitY=0.25;exitDx=0;exitDy=0;" edge="1" parent="1" source="vH0KbwVFjzK0gVxRwM7X-534">
          <mxGeometry width="50" height="50" relative="1" as="geometry">
            <mxPoint x="1450" y="1020" as="sourcePoint" />
            <mxPoint x="1700" y="915" as="targetPoint" />
          </mxGeometry>
        </mxCell>
        <mxCell id="vH0KbwVFjzK0gVxRwM7X-536" value="" style="endArrow=classic;startArrow=none;html=1;rounded=0;exitX=1;exitY=0.75;exitDx=0;exitDy=0;startFill=0;" edge="1" parent="1" source="vH0KbwVFjzK0gVxRwM7X-534">
          <mxGeometry width="50" height="50" relative="1" as="geometry">
            <mxPoint x="1450" y="1020" as="sourcePoint" />
            <mxPoint x="1700" y="945" as="targetPoint" />
          </mxGeometry>
        </mxCell>
        <mxCell id="vH0KbwVFjzK0gVxRwM7X-537" value="98.12" style="text;html=1;align=center;verticalAlign=middle;resizable=0;points=[];autosize=1;strokeColor=none;fillColor=none;fontStyle=1;fontSize=16;" vertex="1" parent="1">
          <mxGeometry x="1630" y="890" width="60" height="30" as="geometry" />
        </mxCell>
        <mxCell id="vH0KbwVFjzK0gVxRwM7X-538" value="83.48" style="text;html=1;align=center;verticalAlign=middle;resizable=0;points=[];autosize=1;strokeColor=none;fillColor=none;fontSize=16;" vertex="1" parent="1">
          <mxGeometry x="1630" y="920" width="60" height="30" as="geometry" />
        </mxCell>
        <mxCell id="vH0KbwVFjzK0gVxRwM7X-539" value="" style="endArrow=classic;html=1;rounded=0;exitX=0.5;exitY=1;exitDx=0;exitDy=0;" edge="1" parent="1" source="vH0KbwVFjzK0gVxRwM7X-534">
          <mxGeometry width="50" height="50" relative="1" as="geometry">
            <mxPoint x="1510" y="1000" as="sourcePoint" />
            <mxPoint x="1560" y="1020" as="targetPoint" />
          </mxGeometry>
        </mxCell>
        <mxCell id="vH0KbwVFjzK0gVxRwM7X-540" value="&lt;font face=&quot;Times New Roman, serif&quot;&gt;&lt;span style=&quot;font-size: 16px;&quot;&gt;TAH 812F&lt;/span&gt;&lt;/font&gt;" style="rounded=0;whiteSpace=wrap;html=1;" vertex="1" parent="1">
          <mxGeometry x="1500" y="1020" width="120" height="60" as="geometry" />
        </mxCell>
        <mxCell id="vH0KbwVFjzK0gVxRwM7X-541" value="" style="endArrow=classic;html=1;rounded=0;exitX=1;exitY=0.25;exitDx=0;exitDy=0;" edge="1" parent="1" source="vH0KbwVFjzK0gVxRwM7X-540">
          <mxGeometry width="50" height="50" relative="1" as="geometry">
            <mxPoint x="1450" y="1140" as="sourcePoint" />
            <mxPoint x="1700" y="1035" as="targetPoint" />
          </mxGeometry>
        </mxCell>
        <mxCell id="vH0KbwVFjzK0gVxRwM7X-542" value="" style="endArrow=classic;startArrow=none;html=1;rounded=0;exitX=1;exitY=0.75;exitDx=0;exitDy=0;startFill=0;" edge="1" parent="1" source="vH0KbwVFjzK0gVxRwM7X-540">
          <mxGeometry width="50" height="50" relative="1" as="geometry">
            <mxPoint x="1450" y="1140" as="sourcePoint" />
            <mxPoint x="1700" y="1065" as="targetPoint" />
          </mxGeometry>
        </mxCell>
        <mxCell id="vH0KbwVFjzK0gVxRwM7X-543" value="93.32" style="text;html=1;align=center;verticalAlign=middle;resizable=0;points=[];autosize=1;strokeColor=none;fillColor=none;fontStyle=1;fontSize=16;" vertex="1" parent="1">
          <mxGeometry x="1630" y="1010" width="60" height="30" as="geometry" />
        </mxCell>
        <mxCell id="vH0KbwVFjzK0gVxRwM7X-544" value="79.98" style="text;html=1;align=center;verticalAlign=middle;resizable=0;points=[];autosize=1;strokeColor=none;fillColor=none;fontSize=16;" vertex="1" parent="1">
          <mxGeometry x="1630" y="1040" width="60" height="30" as="geometry" />
        </mxCell>
        <mxCell id="vH0KbwVFjzK0gVxRwM7X-545" value="" style="endArrow=classic;html=1;rounded=0;exitX=0.5;exitY=1;exitDx=0;exitDy=0;" edge="1" parent="1" source="vH0KbwVFjzK0gVxRwM7X-540">
          <mxGeometry width="50" height="50" relative="1" as="geometry">
            <mxPoint x="1510" y="1120" as="sourcePoint" />
            <mxPoint x="1560" y="1140" as="targetPoint" />
          </mxGeometry>
        </mxCell>
        <mxCell id="vH0KbwVFjzK0gVxRwM7X-546" value="&lt;font face=&quot;Times New Roman, serif&quot;&gt;&lt;span style=&quot;font-size: 16px;&quot;&gt;TAH 812F&lt;/span&gt;&lt;/font&gt;" style="rounded=0;whiteSpace=wrap;html=1;" vertex="1" parent="1">
          <mxGeometry x="1500" y="1140" width="120" height="60" as="geometry" />
        </mxCell>
        <mxCell id="vH0KbwVFjzK0gVxRwM7X-547" value="" style="endArrow=classic;html=1;rounded=0;exitX=1;exitY=0.25;exitDx=0;exitDy=0;" edge="1" parent="1" source="vH0KbwVFjzK0gVxRwM7X-546">
          <mxGeometry width="50" height="50" relative="1" as="geometry">
            <mxPoint x="1450" y="1260" as="sourcePoint" />
            <mxPoint x="1700" y="1155" as="targetPoint" />
          </mxGeometry>
        </mxCell>
        <mxCell id="vH0KbwVFjzK0gVxRwM7X-548" value="" style="endArrow=classic;startArrow=none;html=1;rounded=0;exitX=1;exitY=0.75;exitDx=0;exitDy=0;startFill=0;" edge="1" parent="1" source="vH0KbwVFjzK0gVxRwM7X-546">
          <mxGeometry width="50" height="50" relative="1" as="geometry">
            <mxPoint x="1450" y="1260" as="sourcePoint" />
            <mxPoint x="1700" y="1185" as="targetPoint" />
          </mxGeometry>
        </mxCell>
        <mxCell id="vH0KbwVFjzK0gVxRwM7X-549" value="88.52" style="text;html=1;align=center;verticalAlign=middle;resizable=0;points=[];autosize=1;strokeColor=none;fillColor=none;fontStyle=1;fontSize=16;" vertex="1" parent="1">
          <mxGeometry x="1630" y="1130" width="60" height="30" as="geometry" />
        </mxCell>
        <mxCell id="vH0KbwVFjzK0gVxRwM7X-550" value="76.48" style="text;html=1;align=center;verticalAlign=middle;resizable=0;points=[];autosize=1;strokeColor=none;fillColor=none;fontSize=16;" vertex="1" parent="1">
          <mxGeometry x="1630" y="1160" width="60" height="30" as="geometry" />
        </mxCell>
        <mxCell id="vH0KbwVFjzK0gVxRwM7X-551" value="&lt;span style=&quot;font-size:12.0pt;line-height:115%;&lt;br/&gt;font-family:&amp;quot;Times New Roman&amp;quot;,serif;mso-fareast-font-family:Calibri;mso-ansi-language:&lt;br/&gt;RU;mso-fareast-language:EN-US;mso-bidi-language:AR-SA&quot;&gt;WA-126&lt;/span&gt;" style="rounded=0;whiteSpace=wrap;html=1;" vertex="1" parent="1">
          <mxGeometry x="1500" y="670" width="120" height="60" as="geometry" />
        </mxCell>
        <mxCell id="vH0KbwVFjzK0gVxRwM7X-552" value="" style="endArrow=classic;html=1;rounded=0;exitX=0.5;exitY=1;exitDx=0;exitDy=0;entryX=0.5;entryY=0;entryDx=0;entryDy=0;" edge="1" parent="1" source="vH0KbwVFjzK0gVxRwM7X-551">
          <mxGeometry width="50" height="50" relative="1" as="geometry">
            <mxPoint x="1420" y="730" as="sourcePoint" />
            <mxPoint x="1560" y="780" as="targetPoint" />
          </mxGeometry>
        </mxCell>
        <mxCell id="vH0KbwVFjzK0gVxRwM7X-553" value="&lt;b&gt;114.92&lt;/b&gt;&lt;div&gt;98.88&lt;/div&gt;" style="text;html=1;align=center;verticalAlign=middle;resizable=0;points=[];autosize=1;strokeColor=none;fillColor=none;fontSize=16;" vertex="1" parent="1">
          <mxGeometry x="1485" y="725" width="70" height="50" as="geometry" />
        </mxCell>
        <mxCell id="vH0KbwVFjzK0gVxRwM7X-554" value="&lt;b&gt;110.12&lt;/b&gt;&lt;div&gt;95.48&lt;/div&gt;" style="text;html=1;align=center;verticalAlign=middle;resizable=0;points=[];autosize=1;strokeColor=none;fillColor=none;fontSize=16;" vertex="1" parent="1">
          <mxGeometry x="1485" y="845" width="70" height="50" as="geometry" />
        </mxCell>
        <mxCell id="vH0KbwVFjzK0gVxRwM7X-555" value="&lt;b&gt;105.32&lt;/b&gt;&lt;div&gt;91.88&lt;/div&gt;" style="text;html=1;align=center;verticalAlign=middle;resizable=0;points=[];autosize=1;strokeColor=none;fillColor=none;fontSize=16;" vertex="1" parent="1">
          <mxGeometry x="1485" y="965" width="70" height="50" as="geometry" />
        </mxCell>
        <mxCell id="vH0KbwVFjzK0gVxRwM7X-556" value="&lt;b&gt;100.52&lt;/b&gt;&lt;div&gt;88.48&lt;/div&gt;" style="text;html=1;align=center;verticalAlign=middle;resizable=0;points=[];autosize=1;strokeColor=none;fillColor=none;fontSize=16;" vertex="1" parent="1">
          <mxGeometry x="1485" y="1085" width="70" height="50" as="geometry" />
        </mxCell>
        <mxCell id="vH0KbwVFjzK0gVxRwM7X-560" value="82.52" style="text;html=1;align=center;verticalAlign=middle;resizable=0;points=[];autosize=1;strokeColor=none;fillColor=none;fontStyle=1;fontSize=16;" vertex="1" parent="1">
          <mxGeometry x="1630" y="420" width="60" height="30" as="geometry" />
        </mxCell>
        <mxCell id="vH0KbwVFjzK0gVxRwM7X-595" value="&lt;b&gt;89.72&lt;/b&gt;&lt;br&gt;&lt;div&gt;72.48&lt;/div&gt;" style="text;html=1;align=center;verticalAlign=middle;resizable=0;points=[];autosize=1;strokeColor=none;fillColor=none;fontSize=16;" vertex="1" parent="1">
          <mxGeometry x="2050" y="495" width="60" height="50" as="geometry" />
        </mxCell>
        <mxCell id="vH0KbwVFjzK0gVxRwM7X-596" value="63.98" style="text;html=1;align=center;verticalAlign=middle;resizable=0;points=[];autosize=1;strokeColor=none;fillColor=none;fontSize=16;" vertex="1" parent="1">
          <mxGeometry x="2190" y="450" width="60" height="30" as="geometry" />
        </mxCell>
        <mxCell id="vH0KbwVFjzK0gVxRwM7X-597" value="77.72" style="text;html=1;align=center;verticalAlign=middle;resizable=0;points=[];autosize=1;strokeColor=none;fillColor=none;fontStyle=1;fontSize=16;" vertex="1" parent="1">
          <mxGeometry x="2190" y="540" width="60" height="30" as="geometry" />
        </mxCell>
        <mxCell id="vH0KbwVFjzK0gVxRwM7X-598" value="60.48" style="text;html=1;align=center;verticalAlign=middle;resizable=0;points=[];autosize=1;strokeColor=none;fillColor=none;fontSize=16;" vertex="1" parent="1">
          <mxGeometry x="2190" y="570" width="60" height="30" as="geometry" />
        </mxCell>
        <mxCell id="vH0KbwVFjzK0gVxRwM7X-599" value="102.92" style="text;html=1;align=center;verticalAlign=middle;resizable=0;points=[];autosize=1;strokeColor=none;fillColor=none;fontStyle=1;fontSize=16;" vertex="1" parent="1">
          <mxGeometry x="2185" y="770" width="70" height="30" as="geometry" />
        </mxCell>
        <mxCell id="vH0KbwVFjzK0gVxRwM7X-600" value="86.98" style="text;html=1;align=center;verticalAlign=middle;resizable=0;points=[];autosize=1;strokeColor=none;fillColor=none;fontSize=16;" vertex="1" parent="1">
          <mxGeometry x="2190" y="800" width="60" height="30" as="geometry" />
        </mxCell>
        <mxCell id="vH0KbwVFjzK0gVxRwM7X-601" value="98.12" style="text;html=1;align=center;verticalAlign=middle;resizable=0;points=[];autosize=1;strokeColor=none;fillColor=none;fontStyle=1;fontSize=16;" vertex="1" parent="1">
          <mxGeometry x="2190" y="890" width="60" height="30" as="geometry" />
        </mxCell>
        <mxCell id="vH0KbwVFjzK0gVxRwM7X-602" value="83.48" style="text;html=1;align=center;verticalAlign=middle;resizable=0;points=[];autosize=1;strokeColor=none;fillColor=none;fontSize=16;" vertex="1" parent="1">
          <mxGeometry x="2190" y="920" width="60" height="30" as="geometry" />
        </mxCell>
        <mxCell id="vH0KbwVFjzK0gVxRwM7X-603" value="93.32" style="text;html=1;align=center;verticalAlign=middle;resizable=0;points=[];autosize=1;strokeColor=none;fillColor=none;fontStyle=1;fontSize=16;" vertex="1" parent="1">
          <mxGeometry x="2190" y="1010" width="60" height="30" as="geometry" />
        </mxCell>
        <mxCell id="vH0KbwVFjzK0gVxRwM7X-604" value="79.98" style="text;html=1;align=center;verticalAlign=middle;resizable=0;points=[];autosize=1;strokeColor=none;fillColor=none;fontSize=16;" vertex="1" parent="1">
          <mxGeometry x="2190" y="1040" width="60" height="30" as="geometry" />
        </mxCell>
        <mxCell id="vH0KbwVFjzK0gVxRwM7X-605" value="88.52" style="text;html=1;align=center;verticalAlign=middle;resizable=0;points=[];autosize=1;strokeColor=none;fillColor=none;fontStyle=1;fontSize=16;" vertex="1" parent="1">
          <mxGeometry x="2190" y="1130" width="60" height="30" as="geometry" />
        </mxCell>
        <mxCell id="vH0KbwVFjzK0gVxRwM7X-606" value="76.48" style="text;html=1;align=center;verticalAlign=middle;resizable=0;points=[];autosize=1;strokeColor=none;fillColor=none;fontSize=16;" vertex="1" parent="1">
          <mxGeometry x="2190" y="1160" width="60" height="30" as="geometry" />
        </mxCell>
        <mxCell id="vH0KbwVFjzK0gVxRwM7X-607" value="&lt;b&gt;114.92&lt;/b&gt;&lt;div&gt;98.88&lt;/div&gt;" style="text;html=1;align=center;verticalAlign=middle;resizable=0;points=[];autosize=1;strokeColor=none;fillColor=none;fontSize=16;" vertex="1" parent="1">
          <mxGeometry x="2045" y="725" width="70" height="50" as="geometry" />
        </mxCell>
        <mxCell id="vH0KbwVFjzK0gVxRwM7X-608" value="&lt;b&gt;110.12&lt;/b&gt;&lt;div&gt;95.48&lt;/div&gt;" style="text;html=1;align=center;verticalAlign=middle;resizable=0;points=[];autosize=1;strokeColor=none;fillColor=none;fontSize=16;" vertex="1" parent="1">
          <mxGeometry x="2045" y="845" width="70" height="50" as="geometry" />
        </mxCell>
        <mxCell id="vH0KbwVFjzK0gVxRwM7X-609" value="&lt;b&gt;105.32&lt;/b&gt;&lt;div&gt;91.88&lt;/div&gt;" style="text;html=1;align=center;verticalAlign=middle;resizable=0;points=[];autosize=1;strokeColor=none;fillColor=none;fontSize=16;" vertex="1" parent="1">
          <mxGeometry x="2045" y="965" width="70" height="50" as="geometry" />
        </mxCell>
        <mxCell id="vH0KbwVFjzK0gVxRwM7X-610" value="&lt;b&gt;100.52&lt;/b&gt;&lt;div&gt;88.48&lt;/div&gt;" style="text;html=1;align=center;verticalAlign=middle;resizable=0;points=[];autosize=1;strokeColor=none;fillColor=none;fontSize=16;" vertex="1" parent="1">
          <mxGeometry x="2045" y="1085" width="70" height="50" as="geometry" />
        </mxCell>
        <mxCell id="vH0KbwVFjzK0gVxRwM7X-611" value="82.52" style="text;html=1;align=center;verticalAlign=middle;resizable=0;points=[];autosize=1;strokeColor=none;fillColor=none;fontStyle=1;fontSize=16;" vertex="1" parent="1">
          <mxGeometry x="2190" y="420" width="60" height="30" as="geometry" />
        </mxCell>
        <mxCell id="vH0KbwVFjzK0gVxRwM7X-612" value="" style="endArrow=classic;html=1;rounded=0;exitX=0;exitY=0.25;exitDx=0;exitDy=0;" edge="1" parent="1" source="vH0KbwVFjzK0gVxRwM7X-370">
          <mxGeometry width="50" height="50" relative="1" as="geometry">
            <mxPoint x="1670" y="400" as="sourcePoint" />
            <mxPoint x="1280" y="430" as="targetPoint" />
            <Array as="points">
              <mxPoint x="1280" y="320" />
            </Array>
          </mxGeometry>
        </mxCell>
        <mxCell id="vH0KbwVFjzK0gVxRwM7X-613" value="&lt;font face=&quot;Times New Roman, serif&quot;&gt;&lt;span style=&quot;font-size: 16px;&quot;&gt;TAH 812F&lt;/span&gt;&lt;/font&gt;" style="rounded=0;whiteSpace=wrap;html=1;" vertex="1" parent="1">
          <mxGeometry x="1220" y="430" width="120" height="60" as="geometry" />
        </mxCell>
        <mxCell id="vH0KbwVFjzK0gVxRwM7X-614" value="" style="endArrow=classic;html=1;rounded=0;exitX=1;exitY=0.25;exitDx=0;exitDy=0;" edge="1" parent="1" source="vH0KbwVFjzK0gVxRwM7X-613">
          <mxGeometry width="50" height="50" relative="1" as="geometry">
            <mxPoint x="1170" y="550" as="sourcePoint" />
            <mxPoint x="1420" y="445" as="targetPoint" />
          </mxGeometry>
        </mxCell>
        <mxCell id="vH0KbwVFjzK0gVxRwM7X-615" value="" style="endArrow=classic;startArrow=none;html=1;rounded=0;exitX=1;exitY=0.75;exitDx=0;exitDy=0;startFill=0;" edge="1" parent="1" source="vH0KbwVFjzK0gVxRwM7X-613">
          <mxGeometry width="50" height="50" relative="1" as="geometry">
            <mxPoint x="1170" y="550" as="sourcePoint" />
            <mxPoint x="1420" y="475" as="targetPoint" />
          </mxGeometry>
        </mxCell>
        <mxCell id="vH0KbwVFjzK0gVxRwM7X-616" value="&lt;b&gt;113.23&lt;/b&gt;&lt;br&gt;&lt;div&gt;98.51&lt;/div&gt;" style="text;html=1;align=center;verticalAlign=middle;resizable=0;points=[];autosize=1;strokeColor=none;fillColor=none;fontSize=16;" vertex="1" parent="1">
          <mxGeometry x="1205" y="725" width="70" height="50" as="geometry" />
        </mxCell>
        <mxCell id="vH0KbwVFjzK0gVxRwM7X-617" value="63.51" style="text;html=1;align=center;verticalAlign=middle;resizable=0;points=[];autosize=1;strokeColor=none;fillColor=none;fontSize=16;" vertex="1" parent="1">
          <mxGeometry x="1350" y="450" width="60" height="30" as="geometry" />
        </mxCell>
        <mxCell id="vH0KbwVFjzK0gVxRwM7X-618" value="" style="endArrow=classic;html=1;rounded=0;exitX=0.5;exitY=1;exitDx=0;exitDy=0;" edge="1" parent="1" source="vH0KbwVFjzK0gVxRwM7X-613">
          <mxGeometry width="50" height="50" relative="1" as="geometry">
            <mxPoint x="1230" y="530" as="sourcePoint" />
            <mxPoint x="1280" y="550" as="targetPoint" />
          </mxGeometry>
        </mxCell>
        <mxCell id="vH0KbwVFjzK0gVxRwM7X-625" value="&lt;font face=&quot;Times New Roman, serif&quot;&gt;&lt;span style=&quot;font-size: 16px;&quot;&gt;TAH 812F&lt;/span&gt;&lt;/font&gt;" style="rounded=0;whiteSpace=wrap;html=1;" vertex="1" parent="1">
          <mxGeometry x="1220" y="780" width="120" height="60" as="geometry" />
        </mxCell>
        <mxCell id="vH0KbwVFjzK0gVxRwM7X-626" value="" style="endArrow=classic;html=1;rounded=0;exitX=1;exitY=0.25;exitDx=0;exitDy=0;" edge="1" parent="1" source="vH0KbwVFjzK0gVxRwM7X-625">
          <mxGeometry width="50" height="50" relative="1" as="geometry">
            <mxPoint x="1170" y="900" as="sourcePoint" />
            <mxPoint x="1420" y="795" as="targetPoint" />
          </mxGeometry>
        </mxCell>
        <mxCell id="vH0KbwVFjzK0gVxRwM7X-627" value="" style="endArrow=classic;startArrow=none;html=1;rounded=0;exitX=1;exitY=0.75;exitDx=0;exitDy=0;startFill=0;" edge="1" parent="1" source="vH0KbwVFjzK0gVxRwM7X-625">
          <mxGeometry width="50" height="50" relative="1" as="geometry">
            <mxPoint x="1170" y="900" as="sourcePoint" />
            <mxPoint x="1420" y="825" as="targetPoint" />
          </mxGeometry>
        </mxCell>
        <mxCell id="vH0KbwVFjzK0gVxRwM7X-628" value="101.23" style="text;html=1;align=center;verticalAlign=middle;resizable=0;points=[];autosize=1;strokeColor=none;fillColor=none;fontStyle=1;fontSize=16;" vertex="1" parent="1">
          <mxGeometry x="1345" y="770" width="70" height="30" as="geometry" />
        </mxCell>
        <mxCell id="vH0KbwVFjzK0gVxRwM7X-629" value="86.51" style="text;html=1;align=center;verticalAlign=middle;resizable=0;points=[];autosize=1;strokeColor=none;fillColor=none;fontSize=16;" vertex="1" parent="1">
          <mxGeometry x="1350" y="800" width="60" height="30" as="geometry" />
        </mxCell>
        <mxCell id="vH0KbwVFjzK0gVxRwM7X-630" value="" style="endArrow=classic;html=1;rounded=0;exitX=0.5;exitY=1;exitDx=0;exitDy=0;" edge="1" parent="1" source="vH0KbwVFjzK0gVxRwM7X-625">
          <mxGeometry width="50" height="50" relative="1" as="geometry">
            <mxPoint x="1230" y="880" as="sourcePoint" />
            <mxPoint x="1280" y="900" as="targetPoint" />
          </mxGeometry>
        </mxCell>
        <mxCell id="vH0KbwVFjzK0gVxRwM7X-631" value="&lt;font face=&quot;Times New Roman, serif&quot;&gt;&lt;span style=&quot;font-size: 16px;&quot;&gt;TAH 812F&lt;/span&gt;&lt;/font&gt;" style="rounded=0;whiteSpace=wrap;html=1;" vertex="1" parent="1">
          <mxGeometry x="1220" y="900" width="120" height="60" as="geometry" />
        </mxCell>
        <mxCell id="vH0KbwVFjzK0gVxRwM7X-632" value="" style="endArrow=classic;html=1;rounded=0;exitX=1;exitY=0.25;exitDx=0;exitDy=0;" edge="1" parent="1" source="vH0KbwVFjzK0gVxRwM7X-631">
          <mxGeometry width="50" height="50" relative="1" as="geometry">
            <mxPoint x="1170" y="1020" as="sourcePoint" />
            <mxPoint x="1420" y="915" as="targetPoint" />
          </mxGeometry>
        </mxCell>
        <mxCell id="vH0KbwVFjzK0gVxRwM7X-633" value="" style="endArrow=classic;startArrow=none;html=1;rounded=0;exitX=1;exitY=0.75;exitDx=0;exitDy=0;startFill=0;" edge="1" parent="1" source="vH0KbwVFjzK0gVxRwM7X-631">
          <mxGeometry width="50" height="50" relative="1" as="geometry">
            <mxPoint x="1170" y="1020" as="sourcePoint" />
            <mxPoint x="1420" y="945" as="targetPoint" />
          </mxGeometry>
        </mxCell>
        <mxCell id="vH0KbwVFjzK0gVxRwM7X-634" value="96.43" style="text;html=1;align=center;verticalAlign=middle;resizable=0;points=[];autosize=1;strokeColor=none;fillColor=none;fontStyle=1;fontSize=16;" vertex="1" parent="1">
          <mxGeometry x="1350" y="890" width="60" height="30" as="geometry" />
        </mxCell>
        <mxCell id="vH0KbwVFjzK0gVxRwM7X-635" value="83.01" style="text;html=1;align=center;verticalAlign=middle;resizable=0;points=[];autosize=1;strokeColor=none;fillColor=none;fontSize=16;" vertex="1" parent="1">
          <mxGeometry x="1350" y="920" width="60" height="30" as="geometry" />
        </mxCell>
        <mxCell id="vH0KbwVFjzK0gVxRwM7X-636" value="" style="endArrow=classic;html=1;rounded=0;exitX=0.5;exitY=1;exitDx=0;exitDy=0;" edge="1" parent="1" source="vH0KbwVFjzK0gVxRwM7X-631">
          <mxGeometry width="50" height="50" relative="1" as="geometry">
            <mxPoint x="1230" y="1000" as="sourcePoint" />
            <mxPoint x="1280" y="1020" as="targetPoint" />
          </mxGeometry>
        </mxCell>
        <mxCell id="vH0KbwVFjzK0gVxRwM7X-637" value="&lt;font face=&quot;Times New Roman, serif&quot;&gt;&lt;span style=&quot;font-size: 16px;&quot;&gt;TAH 812F&lt;/span&gt;&lt;/font&gt;" style="rounded=0;whiteSpace=wrap;html=1;" vertex="1" parent="1">
          <mxGeometry x="1220" y="1020" width="120" height="60" as="geometry" />
        </mxCell>
        <mxCell id="vH0KbwVFjzK0gVxRwM7X-638" value="" style="endArrow=classic;html=1;rounded=0;exitX=1;exitY=0.25;exitDx=0;exitDy=0;" edge="1" parent="1" source="vH0KbwVFjzK0gVxRwM7X-637">
          <mxGeometry width="50" height="50" relative="1" as="geometry">
            <mxPoint x="1170" y="1140" as="sourcePoint" />
            <mxPoint x="1420" y="1035" as="targetPoint" />
          </mxGeometry>
        </mxCell>
        <mxCell id="vH0KbwVFjzK0gVxRwM7X-639" value="" style="endArrow=classic;startArrow=none;html=1;rounded=0;exitX=1;exitY=0.75;exitDx=0;exitDy=0;startFill=0;" edge="1" parent="1" source="vH0KbwVFjzK0gVxRwM7X-637">
          <mxGeometry width="50" height="50" relative="1" as="geometry">
            <mxPoint x="1170" y="1140" as="sourcePoint" />
            <mxPoint x="1420" y="1065" as="targetPoint" />
          </mxGeometry>
        </mxCell>
        <mxCell id="vH0KbwVFjzK0gVxRwM7X-640" value="91.63" style="text;html=1;align=center;verticalAlign=middle;resizable=0;points=[];autosize=1;strokeColor=none;fillColor=none;fontStyle=1;fontSize=16;" vertex="1" parent="1">
          <mxGeometry x="1350" y="1010" width="60" height="30" as="geometry" />
        </mxCell>
        <mxCell id="vH0KbwVFjzK0gVxRwM7X-641" value="79.51" style="text;html=1;align=center;verticalAlign=middle;resizable=0;points=[];autosize=1;strokeColor=none;fillColor=none;fontSize=16;" vertex="1" parent="1">
          <mxGeometry x="1350" y="1040" width="60" height="30" as="geometry" />
        </mxCell>
        <mxCell id="vH0KbwVFjzK0gVxRwM7X-642" value="" style="endArrow=classic;html=1;rounded=0;exitX=0.5;exitY=1;exitDx=0;exitDy=0;" edge="1" parent="1" source="vH0KbwVFjzK0gVxRwM7X-637">
          <mxGeometry width="50" height="50" relative="1" as="geometry">
            <mxPoint x="1230" y="1120" as="sourcePoint" />
            <mxPoint x="1280" y="1140" as="targetPoint" />
          </mxGeometry>
        </mxCell>
        <mxCell id="vH0KbwVFjzK0gVxRwM7X-643" value="&lt;font face=&quot;Times New Roman, serif&quot;&gt;&lt;span style=&quot;font-size: 16px;&quot;&gt;TAH 812F&lt;/span&gt;&lt;/font&gt;" style="rounded=0;whiteSpace=wrap;html=1;" vertex="1" parent="1">
          <mxGeometry x="1220" y="1140" width="120" height="60" as="geometry" />
        </mxCell>
        <mxCell id="vH0KbwVFjzK0gVxRwM7X-644" value="" style="endArrow=classic;html=1;rounded=0;exitX=1;exitY=0.25;exitDx=0;exitDy=0;" edge="1" parent="1" source="vH0KbwVFjzK0gVxRwM7X-643">
          <mxGeometry width="50" height="50" relative="1" as="geometry">
            <mxPoint x="1170" y="1260" as="sourcePoint" />
            <mxPoint x="1420" y="1155" as="targetPoint" />
          </mxGeometry>
        </mxCell>
        <mxCell id="vH0KbwVFjzK0gVxRwM7X-645" value="" style="endArrow=classic;startArrow=none;html=1;rounded=0;exitX=1;exitY=0.75;exitDx=0;exitDy=0;startFill=0;" edge="1" parent="1" source="vH0KbwVFjzK0gVxRwM7X-643">
          <mxGeometry width="50" height="50" relative="1" as="geometry">
            <mxPoint x="1170" y="1260" as="sourcePoint" />
            <mxPoint x="1420" y="1185" as="targetPoint" />
          </mxGeometry>
        </mxCell>
        <mxCell id="vH0KbwVFjzK0gVxRwM7X-646" value="86.83" style="text;html=1;align=center;verticalAlign=middle;resizable=0;points=[];autosize=1;strokeColor=none;fillColor=none;fontStyle=1;fontSize=16;" vertex="1" parent="1">
          <mxGeometry x="1350" y="1130" width="60" height="30" as="geometry" />
        </mxCell>
        <mxCell id="vH0KbwVFjzK0gVxRwM7X-647" value="76.01" style="text;html=1;align=center;verticalAlign=middle;resizable=0;points=[];autosize=1;strokeColor=none;fillColor=none;fontSize=16;" vertex="1" parent="1">
          <mxGeometry x="1350" y="1160" width="60" height="30" as="geometry" />
        </mxCell>
        <mxCell id="vH0KbwVFjzK0gVxRwM7X-648" value="&lt;span style=&quot;font-size:12.0pt;line-height:115%;&lt;br/&gt;font-family:&amp;quot;Times New Roman&amp;quot;,serif;mso-fareast-font-family:Calibri;mso-ansi-language:&lt;br/&gt;RU;mso-fareast-language:EN-US;mso-bidi-language:AR-SA&quot;&gt;WA-126&lt;/span&gt;" style="rounded=0;whiteSpace=wrap;html=1;" vertex="1" parent="1">
          <mxGeometry x="1220" y="550" width="120" height="60" as="geometry" />
        </mxCell>
        <mxCell id="vH0KbwVFjzK0gVxRwM7X-649" value="" style="endArrow=classic;html=1;rounded=0;exitX=0.5;exitY=1;exitDx=0;exitDy=0;" edge="1" parent="1" source="vH0KbwVFjzK0gVxRwM7X-648">
          <mxGeometry width="50" height="50" relative="1" as="geometry">
            <mxPoint x="1140" y="730" as="sourcePoint" />
            <mxPoint x="1280" y="660" as="targetPoint" />
          </mxGeometry>
        </mxCell>
        <mxCell id="vH0KbwVFjzK0gVxRwM7X-650" value="&lt;b&gt;118.03&lt;/b&gt;&lt;div&gt;102.01&lt;/div&gt;" style="text;html=1;align=center;verticalAlign=middle;resizable=0;points=[];autosize=1;strokeColor=none;fillColor=none;fontSize=16;" vertex="1" parent="1">
          <mxGeometry x="1205" y="605" width="70" height="50" as="geometry" />
        </mxCell>
        <mxCell id="vH0KbwVFjzK0gVxRwM7X-651" value="&lt;b&gt;108.43&lt;/b&gt;&lt;div&gt;95.01&lt;/div&gt;" style="text;html=1;align=center;verticalAlign=middle;resizable=0;points=[];autosize=1;strokeColor=none;fillColor=none;fontSize=16;" vertex="1" parent="1">
          <mxGeometry x="1205" y="845" width="70" height="50" as="geometry" />
        </mxCell>
        <mxCell id="vH0KbwVFjzK0gVxRwM7X-652" value="&lt;b&gt;103.63&lt;/b&gt;&lt;div&gt;91.51&lt;/div&gt;" style="text;html=1;align=center;verticalAlign=middle;resizable=0;points=[];autosize=1;strokeColor=none;fillColor=none;fontSize=16;" vertex="1" parent="1">
          <mxGeometry x="1205" y="965" width="70" height="50" as="geometry" />
        </mxCell>
        <mxCell id="vH0KbwVFjzK0gVxRwM7X-653" value="&lt;b&gt;98.83&lt;/b&gt;&lt;br&gt;&lt;div&gt;88.01&lt;/div&gt;" style="text;html=1;align=center;verticalAlign=middle;resizable=0;points=[];autosize=1;strokeColor=none;fillColor=none;fontSize=16;" vertex="1" parent="1">
          <mxGeometry x="1210" y="1085" width="60" height="50" as="geometry" />
        </mxCell>
        <mxCell id="vH0KbwVFjzK0gVxRwM7X-654" value="&lt;font face=&quot;Times New Roman, serif&quot;&gt;&lt;span style=&quot;font-size: 16px;&quot;&gt;TAH 812F&lt;/span&gt;&lt;/font&gt;" style="rounded=0;whiteSpace=wrap;html=1;" vertex="1" parent="1">
          <mxGeometry x="1220" y="660" width="120" height="60" as="geometry" />
        </mxCell>
        <mxCell id="vH0KbwVFjzK0gVxRwM7X-655" value="" style="endArrow=classic;html=1;rounded=0;exitX=1;exitY=0.25;exitDx=0;exitDy=0;" edge="1" parent="1" source="vH0KbwVFjzK0gVxRwM7X-654">
          <mxGeometry width="50" height="50" relative="1" as="geometry">
            <mxPoint x="1170" y="780" as="sourcePoint" />
            <mxPoint x="1420" y="675" as="targetPoint" />
          </mxGeometry>
        </mxCell>
        <mxCell id="vH0KbwVFjzK0gVxRwM7X-656" value="" style="endArrow=classic;startArrow=none;html=1;rounded=0;exitX=1;exitY=0.75;exitDx=0;exitDy=0;startFill=0;" edge="1" parent="1" source="vH0KbwVFjzK0gVxRwM7X-654">
          <mxGeometry width="50" height="50" relative="1" as="geometry">
            <mxPoint x="1170" y="780" as="sourcePoint" />
            <mxPoint x="1420" y="705" as="targetPoint" />
          </mxGeometry>
        </mxCell>
        <mxCell id="vH0KbwVFjzK0gVxRwM7X-657" value="90.01" style="text;html=1;align=center;verticalAlign=middle;resizable=0;points=[];autosize=1;strokeColor=none;fillColor=none;fontSize=16;" vertex="1" parent="1">
          <mxGeometry x="1350" y="680" width="60" height="30" as="geometry" />
        </mxCell>
        <mxCell id="vH0KbwVFjzK0gVxRwM7X-658" value="" style="endArrow=classic;html=1;rounded=0;exitX=0.5;exitY=1;exitDx=0;exitDy=0;" edge="1" parent="1" source="vH0KbwVFjzK0gVxRwM7X-654">
          <mxGeometry width="50" height="50" relative="1" as="geometry">
            <mxPoint x="1230" y="760" as="sourcePoint" />
            <mxPoint x="1280" y="780" as="targetPoint" />
          </mxGeometry>
        </mxCell>
        <mxCell id="vH0KbwVFjzK0gVxRwM7X-659" value="&lt;font face=&quot;Times New Roman, serif&quot;&gt;&lt;span style=&quot;font-size: 16px;&quot;&gt;TAH 812F&lt;/span&gt;&lt;/font&gt;" style="rounded=0;whiteSpace=wrap;html=1;" vertex="1" parent="1">
          <mxGeometry x="2348" y="430" width="120" height="60" as="geometry" />
        </mxCell>
        <mxCell id="vH0KbwVFjzK0gVxRwM7X-660" value="" style="endArrow=classic;html=1;rounded=0;exitX=1;exitY=0.25;exitDx=0;exitDy=0;" edge="1" parent="1" source="vH0KbwVFjzK0gVxRwM7X-659">
          <mxGeometry width="50" height="50" relative="1" as="geometry">
            <mxPoint x="2298" y="550" as="sourcePoint" />
            <mxPoint x="2548" y="445" as="targetPoint" />
          </mxGeometry>
        </mxCell>
        <mxCell id="vH0KbwVFjzK0gVxRwM7X-661" value="" style="endArrow=classic;startArrow=none;html=1;rounded=0;exitX=1;exitY=0.75;exitDx=0;exitDy=0;startFill=0;" edge="1" parent="1" source="vH0KbwVFjzK0gVxRwM7X-659">
          <mxGeometry width="50" height="50" relative="1" as="geometry">
            <mxPoint x="2298" y="550" as="sourcePoint" />
            <mxPoint x="2548" y="475" as="targetPoint" />
          </mxGeometry>
        </mxCell>
        <mxCell id="vH0KbwVFjzK0gVxRwM7X-664" value="" style="endArrow=classic;html=1;rounded=0;exitX=0.5;exitY=1;exitDx=0;exitDy=0;" edge="1" parent="1" source="vH0KbwVFjzK0gVxRwM7X-659">
          <mxGeometry width="50" height="50" relative="1" as="geometry">
            <mxPoint x="2358" y="530" as="sourcePoint" />
            <mxPoint x="2408" y="550" as="targetPoint" />
          </mxGeometry>
        </mxCell>
        <mxCell id="vH0KbwVFjzK0gVxRwM7X-665" value="&lt;font face=&quot;Times New Roman, serif&quot;&gt;&lt;span style=&quot;font-size: 16px;&quot;&gt;TAH 812F&lt;/span&gt;&lt;/font&gt;" style="rounded=0;whiteSpace=wrap;html=1;" vertex="1" parent="1">
          <mxGeometry x="2348" y="780" width="120" height="60" as="geometry" />
        </mxCell>
        <mxCell id="vH0KbwVFjzK0gVxRwM7X-666" value="" style="endArrow=classic;html=1;rounded=0;exitX=1;exitY=0.25;exitDx=0;exitDy=0;" edge="1" parent="1" source="vH0KbwVFjzK0gVxRwM7X-665">
          <mxGeometry width="50" height="50" relative="1" as="geometry">
            <mxPoint x="2298" y="900" as="sourcePoint" />
            <mxPoint x="2548" y="795" as="targetPoint" />
          </mxGeometry>
        </mxCell>
        <mxCell id="vH0KbwVFjzK0gVxRwM7X-667" value="" style="endArrow=classic;startArrow=none;html=1;rounded=0;exitX=1;exitY=0.75;exitDx=0;exitDy=0;startFill=0;" edge="1" parent="1" source="vH0KbwVFjzK0gVxRwM7X-665">
          <mxGeometry width="50" height="50" relative="1" as="geometry">
            <mxPoint x="2298" y="900" as="sourcePoint" />
            <mxPoint x="2548" y="825" as="targetPoint" />
          </mxGeometry>
        </mxCell>
        <mxCell id="vH0KbwVFjzK0gVxRwM7X-670" value="" style="endArrow=classic;html=1;rounded=0;exitX=0.5;exitY=1;exitDx=0;exitDy=0;" edge="1" parent="1" source="vH0KbwVFjzK0gVxRwM7X-665">
          <mxGeometry width="50" height="50" relative="1" as="geometry">
            <mxPoint x="2358" y="880" as="sourcePoint" />
            <mxPoint x="2408" y="900" as="targetPoint" />
          </mxGeometry>
        </mxCell>
        <mxCell id="vH0KbwVFjzK0gVxRwM7X-671" value="&lt;font face=&quot;Times New Roman, serif&quot;&gt;&lt;span style=&quot;font-size: 16px;&quot;&gt;TAH 812F&lt;/span&gt;&lt;/font&gt;" style="rounded=0;whiteSpace=wrap;html=1;" vertex="1" parent="1">
          <mxGeometry x="2348" y="900" width="120" height="60" as="geometry" />
        </mxCell>
        <mxCell id="vH0KbwVFjzK0gVxRwM7X-672" value="" style="endArrow=classic;html=1;rounded=0;exitX=1;exitY=0.25;exitDx=0;exitDy=0;" edge="1" parent="1" source="vH0KbwVFjzK0gVxRwM7X-671">
          <mxGeometry width="50" height="50" relative="1" as="geometry">
            <mxPoint x="2298" y="1020" as="sourcePoint" />
            <mxPoint x="2548" y="915" as="targetPoint" />
          </mxGeometry>
        </mxCell>
        <mxCell id="vH0KbwVFjzK0gVxRwM7X-673" value="" style="endArrow=classic;startArrow=none;html=1;rounded=0;exitX=1;exitY=0.75;exitDx=0;exitDy=0;startFill=0;" edge="1" parent="1" source="vH0KbwVFjzK0gVxRwM7X-671">
          <mxGeometry width="50" height="50" relative="1" as="geometry">
            <mxPoint x="2298" y="1020" as="sourcePoint" />
            <mxPoint x="2548" y="945" as="targetPoint" />
          </mxGeometry>
        </mxCell>
        <mxCell id="vH0KbwVFjzK0gVxRwM7X-676" value="" style="endArrow=classic;html=1;rounded=0;exitX=0.5;exitY=1;exitDx=0;exitDy=0;" edge="1" parent="1" source="vH0KbwVFjzK0gVxRwM7X-671">
          <mxGeometry width="50" height="50" relative="1" as="geometry">
            <mxPoint x="2358" y="1000" as="sourcePoint" />
            <mxPoint x="2408" y="1020" as="targetPoint" />
          </mxGeometry>
        </mxCell>
        <mxCell id="vH0KbwVFjzK0gVxRwM7X-677" value="&lt;font face=&quot;Times New Roman, serif&quot;&gt;&lt;span style=&quot;font-size: 16px;&quot;&gt;TAH 812F&lt;/span&gt;&lt;/font&gt;" style="rounded=0;whiteSpace=wrap;html=1;" vertex="1" parent="1">
          <mxGeometry x="2348" y="1020" width="120" height="60" as="geometry" />
        </mxCell>
        <mxCell id="vH0KbwVFjzK0gVxRwM7X-678" value="" style="endArrow=classic;html=1;rounded=0;exitX=1;exitY=0.25;exitDx=0;exitDy=0;" edge="1" parent="1" source="vH0KbwVFjzK0gVxRwM7X-677">
          <mxGeometry width="50" height="50" relative="1" as="geometry">
            <mxPoint x="2298" y="1140" as="sourcePoint" />
            <mxPoint x="2548" y="1035" as="targetPoint" />
          </mxGeometry>
        </mxCell>
        <mxCell id="vH0KbwVFjzK0gVxRwM7X-679" value="" style="endArrow=classic;startArrow=none;html=1;rounded=0;exitX=1;exitY=0.75;exitDx=0;exitDy=0;startFill=0;" edge="1" parent="1" source="vH0KbwVFjzK0gVxRwM7X-677">
          <mxGeometry width="50" height="50" relative="1" as="geometry">
            <mxPoint x="2298" y="1140" as="sourcePoint" />
            <mxPoint x="2548" y="1065" as="targetPoint" />
          </mxGeometry>
        </mxCell>
        <mxCell id="vH0KbwVFjzK0gVxRwM7X-682" value="" style="endArrow=classic;html=1;rounded=0;exitX=0.5;exitY=1;exitDx=0;exitDy=0;" edge="1" parent="1" source="vH0KbwVFjzK0gVxRwM7X-677">
          <mxGeometry width="50" height="50" relative="1" as="geometry">
            <mxPoint x="2358" y="1120" as="sourcePoint" />
            <mxPoint x="2408" y="1140" as="targetPoint" />
          </mxGeometry>
        </mxCell>
        <mxCell id="vH0KbwVFjzK0gVxRwM7X-683" value="&lt;font face=&quot;Times New Roman, serif&quot;&gt;&lt;span style=&quot;font-size: 16px;&quot;&gt;TAH 812F&lt;/span&gt;&lt;/font&gt;" style="rounded=0;whiteSpace=wrap;html=1;" vertex="1" parent="1">
          <mxGeometry x="2348" y="1140" width="120" height="60" as="geometry" />
        </mxCell>
        <mxCell id="vH0KbwVFjzK0gVxRwM7X-684" value="" style="endArrow=classic;html=1;rounded=0;exitX=1;exitY=0.25;exitDx=0;exitDy=0;" edge="1" parent="1" source="vH0KbwVFjzK0gVxRwM7X-683">
          <mxGeometry width="50" height="50" relative="1" as="geometry">
            <mxPoint x="2298" y="1260" as="sourcePoint" />
            <mxPoint x="2548" y="1155" as="targetPoint" />
          </mxGeometry>
        </mxCell>
        <mxCell id="vH0KbwVFjzK0gVxRwM7X-685" value="" style="endArrow=classic;startArrow=none;html=1;rounded=0;exitX=1;exitY=0.75;exitDx=0;exitDy=0;startFill=0;" edge="1" parent="1" source="vH0KbwVFjzK0gVxRwM7X-683">
          <mxGeometry width="50" height="50" relative="1" as="geometry">
            <mxPoint x="2298" y="1260" as="sourcePoint" />
            <mxPoint x="2548" y="1185" as="targetPoint" />
          </mxGeometry>
        </mxCell>
        <mxCell id="vH0KbwVFjzK0gVxRwM7X-688" value="&lt;span style=&quot;font-size:12.0pt;line-height:115%;&lt;br/&gt;font-family:&amp;quot;Times New Roman&amp;quot;,serif;mso-fareast-font-family:Calibri;mso-ansi-language:&lt;br/&gt;RU;mso-fareast-language:EN-US;mso-bidi-language:AR-SA&quot;&gt;WA-126&lt;/span&gt;" style="rounded=0;whiteSpace=wrap;html=1;" vertex="1" parent="1">
          <mxGeometry x="2348" y="550" width="120" height="60" as="geometry" />
        </mxCell>
        <mxCell id="vH0KbwVFjzK0gVxRwM7X-689" value="" style="endArrow=classic;html=1;rounded=0;exitX=0.5;exitY=1;exitDx=0;exitDy=0;" edge="1" parent="1" source="vH0KbwVFjzK0gVxRwM7X-688">
          <mxGeometry width="50" height="50" relative="1" as="geometry">
            <mxPoint x="2268" y="730" as="sourcePoint" />
            <mxPoint x="2408" y="660" as="targetPoint" />
          </mxGeometry>
        </mxCell>
        <mxCell id="vH0KbwVFjzK0gVxRwM7X-694" value="&lt;font face=&quot;Times New Roman, serif&quot;&gt;&lt;span style=&quot;font-size: 16px;&quot;&gt;TAH 812F&lt;/span&gt;&lt;/font&gt;" style="rounded=0;whiteSpace=wrap;html=1;" vertex="1" parent="1">
          <mxGeometry x="2348" y="660" width="120" height="60" as="geometry" />
        </mxCell>
        <mxCell id="vH0KbwVFjzK0gVxRwM7X-695" value="" style="endArrow=classic;html=1;rounded=0;exitX=1;exitY=0.25;exitDx=0;exitDy=0;" edge="1" parent="1" source="vH0KbwVFjzK0gVxRwM7X-694">
          <mxGeometry width="50" height="50" relative="1" as="geometry">
            <mxPoint x="2298" y="780" as="sourcePoint" />
            <mxPoint x="2548" y="675" as="targetPoint" />
          </mxGeometry>
        </mxCell>
        <mxCell id="vH0KbwVFjzK0gVxRwM7X-696" value="" style="endArrow=classic;startArrow=none;html=1;rounded=0;exitX=1;exitY=0.75;exitDx=0;exitDy=0;startFill=0;" edge="1" parent="1" source="vH0KbwVFjzK0gVxRwM7X-694">
          <mxGeometry width="50" height="50" relative="1" as="geometry">
            <mxPoint x="2298" y="780" as="sourcePoint" />
            <mxPoint x="2548" y="705" as="targetPoint" />
          </mxGeometry>
        </mxCell>
        <mxCell id="vH0KbwVFjzK0gVxRwM7X-698" value="" style="endArrow=classic;html=1;rounded=0;exitX=0.5;exitY=1;exitDx=0;exitDy=0;" edge="1" parent="1" source="vH0KbwVFjzK0gVxRwM7X-694">
          <mxGeometry width="50" height="50" relative="1" as="geometry">
            <mxPoint x="2358" y="760" as="sourcePoint" />
            <mxPoint x="2408" y="780" as="targetPoint" />
          </mxGeometry>
        </mxCell>
        <mxCell id="vH0KbwVFjzK0gVxRwM7X-700" value="" style="endArrow=classic;html=1;rounded=0;exitX=1;exitY=0.25;exitDx=0;exitDy=0;entryX=0.5;entryY=0;entryDx=0;entryDy=0;" edge="1" parent="1" source="vH0KbwVFjzK0gVxRwM7X-370" target="vH0KbwVFjzK0gVxRwM7X-659">
          <mxGeometry width="50" height="50" relative="1" as="geometry">
            <mxPoint x="1980" y="450" as="sourcePoint" />
            <mxPoint x="2030" y="400" as="targetPoint" />
            <Array as="points">
              <mxPoint x="2408" y="320" />
            </Array>
          </mxGeometry>
        </mxCell>
        <mxCell id="vH0KbwVFjzK0gVxRwM7X-701" value="106.03" style="text;html=1;align=center;verticalAlign=middle;resizable=0;points=[];autosize=1;strokeColor=none;fillColor=none;fontStyle=1;fontSize=16;" vertex="1" parent="1">
          <mxGeometry x="1345" y="650" width="70" height="30" as="geometry" />
        </mxCell>
        <mxCell id="vH0KbwVFjzK0gVxRwM7X-702" value="80.83" style="text;html=1;align=center;verticalAlign=middle;resizable=0;points=[];autosize=1;strokeColor=none;fillColor=none;fontStyle=1;fontSize=16;" vertex="1" parent="1">
          <mxGeometry x="1350" y="415" width="60" height="30" as="geometry" />
        </mxCell>
        <mxCell id="vH0KbwVFjzK0gVxRwM7X-720" value="&lt;b&gt;113.23&lt;/b&gt;&lt;br&gt;&lt;div&gt;98.51&lt;/div&gt;" style="text;html=1;align=center;verticalAlign=middle;resizable=0;points=[];autosize=1;strokeColor=none;fillColor=none;fontSize=16;" vertex="1" parent="1">
          <mxGeometry x="2333" y="725" width="70" height="50" as="geometry" />
        </mxCell>
        <mxCell id="vH0KbwVFjzK0gVxRwM7X-721" value="63.51" style="text;html=1;align=center;verticalAlign=middle;resizable=0;points=[];autosize=1;strokeColor=none;fillColor=none;fontSize=16;" vertex="1" parent="1">
          <mxGeometry x="2478" y="450" width="60" height="30" as="geometry" />
        </mxCell>
        <mxCell id="vH0KbwVFjzK0gVxRwM7X-722" value="101.23" style="text;html=1;align=center;verticalAlign=middle;resizable=0;points=[];autosize=1;strokeColor=none;fillColor=none;fontStyle=1;fontSize=16;" vertex="1" parent="1">
          <mxGeometry x="2473" y="770" width="70" height="30" as="geometry" />
        </mxCell>
        <mxCell id="vH0KbwVFjzK0gVxRwM7X-723" value="86.51" style="text;html=1;align=center;verticalAlign=middle;resizable=0;points=[];autosize=1;strokeColor=none;fillColor=none;fontSize=16;" vertex="1" parent="1">
          <mxGeometry x="2478" y="800" width="60" height="30" as="geometry" />
        </mxCell>
        <mxCell id="vH0KbwVFjzK0gVxRwM7X-724" value="96.43" style="text;html=1;align=center;verticalAlign=middle;resizable=0;points=[];autosize=1;strokeColor=none;fillColor=none;fontStyle=1;fontSize=16;" vertex="1" parent="1">
          <mxGeometry x="2478" y="890" width="60" height="30" as="geometry" />
        </mxCell>
        <mxCell id="vH0KbwVFjzK0gVxRwM7X-725" value="83.01" style="text;html=1;align=center;verticalAlign=middle;resizable=0;points=[];autosize=1;strokeColor=none;fillColor=none;fontSize=16;" vertex="1" parent="1">
          <mxGeometry x="2478" y="920" width="60" height="30" as="geometry" />
        </mxCell>
        <mxCell id="vH0KbwVFjzK0gVxRwM7X-726" value="91.63" style="text;html=1;align=center;verticalAlign=middle;resizable=0;points=[];autosize=1;strokeColor=none;fillColor=none;fontStyle=1;fontSize=16;" vertex="1" parent="1">
          <mxGeometry x="2478" y="1010" width="60" height="30" as="geometry" />
        </mxCell>
        <mxCell id="vH0KbwVFjzK0gVxRwM7X-727" value="79.51" style="text;html=1;align=center;verticalAlign=middle;resizable=0;points=[];autosize=1;strokeColor=none;fillColor=none;fontSize=16;" vertex="1" parent="1">
          <mxGeometry x="2478" y="1040" width="60" height="30" as="geometry" />
        </mxCell>
        <mxCell id="vH0KbwVFjzK0gVxRwM7X-728" value="86.83" style="text;html=1;align=center;verticalAlign=middle;resizable=0;points=[];autosize=1;strokeColor=none;fillColor=none;fontStyle=1;fontSize=16;" vertex="1" parent="1">
          <mxGeometry x="2478" y="1130" width="60" height="30" as="geometry" />
        </mxCell>
        <mxCell id="vH0KbwVFjzK0gVxRwM7X-729" value="76.01" style="text;html=1;align=center;verticalAlign=middle;resizable=0;points=[];autosize=1;strokeColor=none;fillColor=none;fontSize=16;" vertex="1" parent="1">
          <mxGeometry x="2478" y="1160" width="60" height="30" as="geometry" />
        </mxCell>
        <mxCell id="vH0KbwVFjzK0gVxRwM7X-730" value="&lt;b&gt;118.03&lt;/b&gt;&lt;div&gt;102.01&lt;/div&gt;" style="text;html=1;align=center;verticalAlign=middle;resizable=0;points=[];autosize=1;strokeColor=none;fillColor=none;fontSize=16;" vertex="1" parent="1">
          <mxGeometry x="2333" y="605" width="70" height="50" as="geometry" />
        </mxCell>
        <mxCell id="vH0KbwVFjzK0gVxRwM7X-731" value="&lt;b&gt;108.43&lt;/b&gt;&lt;div&gt;95.01&lt;/div&gt;" style="text;html=1;align=center;verticalAlign=middle;resizable=0;points=[];autosize=1;strokeColor=none;fillColor=none;fontSize=16;" vertex="1" parent="1">
          <mxGeometry x="2333" y="845" width="70" height="50" as="geometry" />
        </mxCell>
        <mxCell id="vH0KbwVFjzK0gVxRwM7X-732" value="&lt;b&gt;103.63&lt;/b&gt;&lt;div&gt;91.51&lt;/div&gt;" style="text;html=1;align=center;verticalAlign=middle;resizable=0;points=[];autosize=1;strokeColor=none;fillColor=none;fontSize=16;" vertex="1" parent="1">
          <mxGeometry x="2333" y="965" width="70" height="50" as="geometry" />
        </mxCell>
        <mxCell id="vH0KbwVFjzK0gVxRwM7X-733" value="&lt;b&gt;98.83&lt;/b&gt;&lt;br&gt;&lt;div&gt;88.01&lt;/div&gt;" style="text;html=1;align=center;verticalAlign=middle;resizable=0;points=[];autosize=1;strokeColor=none;fillColor=none;fontSize=16;" vertex="1" parent="1">
          <mxGeometry x="2338" y="1085" width="60" height="50" as="geometry" />
        </mxCell>
        <mxCell id="vH0KbwVFjzK0gVxRwM7X-734" value="90.01" style="text;html=1;align=center;verticalAlign=middle;resizable=0;points=[];autosize=1;strokeColor=none;fillColor=none;fontSize=16;" vertex="1" parent="1">
          <mxGeometry x="2478" y="680" width="60" height="30" as="geometry" />
        </mxCell>
        <mxCell id="vH0KbwVFjzK0gVxRwM7X-735" value="106.03" style="text;html=1;align=center;verticalAlign=middle;resizable=0;points=[];autosize=1;strokeColor=none;fillColor=none;fontStyle=1;fontSize=16;" vertex="1" parent="1">
          <mxGeometry x="2473" y="650" width="70" height="30" as="geometry" />
        </mxCell>
        <mxCell id="vH0KbwVFjzK0gVxRwM7X-736" value="80.83" style="text;html=1;align=center;verticalAlign=middle;resizable=0;points=[];autosize=1;strokeColor=none;fillColor=none;fontStyle=1;fontSize=16;" vertex="1" parent="1">
          <mxGeometry x="2478" y="415" width="60" height="30" as="geometry" />
        </mxCell>
        <mxCell id="vH0KbwVFjzK0gVxRwM7X-737" value="" style="endArrow=classic;html=1;rounded=0;exitX=0;exitY=0.5;exitDx=0;exitDy=0;entryX=1;entryY=0.5;entryDx=0;entryDy=0;" edge="1" parent="1" source="vH0KbwVFjzK0gVxRwM7X-154" target="vH0KbwVFjzK0gVxRwM7X-155">
          <mxGeometry width="50" height="50" relative="1" as="geometry">
            <mxPoint x="820" y="300" as="sourcePoint" />
            <mxPoint x="870" y="250" as="targetPoint" />
          </mxGeometry>
        </mxCell>
        <mxCell id="vH0KbwVFjzK0gVxRwM7X-738" value="18 м" style="text;html=1;align=center;verticalAlign=middle;resizable=0;points=[];autosize=1;strokeColor=none;fillColor=none;fontSize=16;" vertex="1" parent="1">
          <mxGeometry x="1990" y="350" width="60" height="30" as="geometry" />
        </mxCell>
        <mxCell id="vH0KbwVFjzK0gVxRwM7X-739" value="18 м" style="text;html=1;align=center;verticalAlign=middle;resizable=0;points=[];autosize=1;strokeColor=none;fillColor=none;fontSize=16;" vertex="1" parent="1">
          <mxGeometry x="1640" y="350" width="60" height="30" as="geometry" />
        </mxCell>
        <mxCell id="vH0KbwVFjzK0gVxRwM7X-740" value="32 м" style="text;html=1;align=center;verticalAlign=middle;resizable=0;points=[];autosize=1;strokeColor=none;fillColor=none;fontSize=16;" vertex="1" parent="1">
          <mxGeometry x="1495" y="290" width="60" height="30" as="geometry" />
        </mxCell>
        <mxCell id="vH0KbwVFjzK0gVxRwM7X-741" value="32 м" style="text;html=1;align=center;verticalAlign=middle;resizable=0;points=[];autosize=1;strokeColor=none;fillColor=none;fontSize=16;" vertex="1" parent="1">
          <mxGeometry x="2150" y="290" width="60" height="30" as="geometry" />
        </mxCell>
      </root>
    </mxGraphModel>
  </diagram>
</mxfile>
